<svg width="23" height="18" viewBox="0 0 23 18" fill="none" xmlns="http://www.w3.org/2000/svg">
<path d="M20.976 17.6628H9.19631C8.60817 17.6615 8.04448 17.4274 7.62864 17.0115L0.32016 9.70349C0.117 9.49734 0.00215845 9.22016 0 8.93074L0 8.73204C0.000503725 8.44229 0.115595 8.1645 0.32016 7.95929L7.62864 0.651315C8.04448 0.23543 8.60817 0.00123535 9.19631 0L20.976 0C21.2688 0 21.5496 0.116306 21.7566 0.323332C21.9637 0.530358 22.08 0.811145 22.08 1.10392V16.5589C22.08 16.8516 21.9637 17.1324 21.7566 17.3394C21.5496 17.5465 21.2688 17.6628 20.976 17.6628ZM9.19631 2.20785L2.57232 8.83139L9.19631 15.4549H19.872V2.20785H9.19631ZM15.6878 12.4103C15.6154 12.4102 15.5437 12.3952 15.4773 12.3664C15.4108 12.3375 15.351 12.2954 15.3014 12.2425L13.248 10.2003L11.1946 12.2425C11.1451 12.2955 11.0853 12.3377 11.0188 12.3665C10.9523 12.3954 10.8806 12.4103 10.8082 12.4103C10.7357 12.4103 10.664 12.3954 10.5975 12.3665C10.5311 12.3377 10.4712 12.2955 10.4218 12.2425L9.83663 11.6574C9.78383 11.6079 9.74174 11.548 9.71297 11.4816C9.6842 11.4151 9.66936 11.3435 9.66936 11.2711C9.66936 11.1986 9.6842 11.127 9.71297 11.0605C9.74174 10.9941 9.78383 10.9342 9.83663 10.8847L11.879 8.83139L9.83663 6.77809C9.78397 6.72845 9.74202 6.66857 9.71334 6.60213C9.68466 6.53569 9.66986 6.46409 9.66986 6.39172C9.66986 6.31935 9.68466 6.24775 9.71334 6.18131C9.74202 6.11486 9.78397 6.05499 9.83663 6.00535L10.4218 5.42137C10.4712 5.36842 10.5311 5.32621 10.5975 5.29735C10.664 5.26849 10.7357 5.25359 10.8082 5.25359C10.8806 5.25359 10.9523 5.26849 11.0188 5.29735C11.0853 5.32621 11.1451 5.36842 11.1946 5.42137L13.248 7.46252L15.3014 5.42027C15.3509 5.36732 15.4107 5.32511 15.4772 5.29624C15.5437 5.26738 15.6154 5.25249 15.6878 5.25249C15.7603 5.25249 15.832 5.26738 15.8985 5.29624C15.9649 5.32511 16.0248 5.36732 16.0742 5.42027L16.6594 6.00424C16.712 6.05388 16.754 6.11376 16.7826 6.1802C16.8113 6.24665 16.8261 6.31825 16.8261 6.39061C16.8261 6.46298 16.8113 6.53458 16.7826 6.60103C16.754 6.66747 16.712 6.72735 16.6594 6.77699L14.617 8.83139L16.6594 10.8847C16.7122 10.9342 16.7542 10.9941 16.783 11.0605C16.8118 11.127 16.8266 11.1986 16.8266 11.2711C16.8266 11.3435 16.8118 11.4151 16.783 11.4816C16.7542 11.548 16.7122 11.6079 16.6594 11.6574L16.0742 12.2425C16.0247 12.2954 15.9648 12.3375 15.8984 12.3664C15.8319 12.3952 15.7603 12.4102 15.6878 12.4103Z" fill="#060417"/>
</svg>
