<svg width="23" height="28" viewBox="0 0 23 28" fill="none" xmlns="http://www.w3.org/2000/svg">
<g clip-path="url(#clip0)">
<path d="M4.86768 14.9927C5.2174 11.8931 5.57211 8.7518 5.93429 5.54105C6.22925 5.55368 6.48937 5.54989 6.74576 5.57894C9.62698 5.90734 12.507 6.23953 15.3869 6.57298C16.1573 6.66266 16.2357 6.77002 16.1499 7.52661C15.8474 10.1993 15.5413 12.8707 15.2538 15.5446C15.2015 16.0335 15.0223 16.2734 14.5045 16.2116C11.3582 15.8377 8.21064 15.4727 5.06308 15.1038C5.02698 15.0988 4.99338 15.0647 4.86768 14.9927Z" fill="#F7A000"/>
<path d="M11.0657 20.15C11.5411 19.7938 11.9481 19.4844 12.3613 19.1812C13.3358 18.4676 14.3053 17.7464 15.2923 17.0517C15.7864 16.7043 16.054 16.2749 16.1112 15.6522C16.2469 14.1706 16.4323 12.6928 16.6066 11.1392C17.6197 11.2566 18.5793 11.3691 19.5376 11.4802C20.4636 11.5876 21.3908 11.6861 22.3168 11.8023C23.0648 11.8958 23.188 12.1837 22.7387 12.7824C21.9359 13.8535 21.1381 14.9284 20.3105 15.9793C20.0665 16.2888 20.0466 16.5325 20.2109 16.8837C20.7884 18.1177 21.3385 19.3644 21.8861 20.6123C22.1375 21.187 21.9384 21.4826 21.3348 21.4144C18.0615 21.043 14.7907 20.6603 11.5187 20.2776C11.4005 20.2624 11.286 20.2119 11.0657 20.15Z" fill="#F7A000"/>
<path d="M2.53152 5.02722C3.41393 5.12701 4.20051 5.21668 5.0767 5.3152C4.96469 6.36483 4.84521 7.52812 4.71453 8.68889C4.11463 14.0191 3.51225 19.3493 2.90987 24.6795C2.80782 25.5776 2.6846 26.4743 2.59748 27.3749C2.5477 27.9004 2.29131 28.0747 1.80468 27.9724C1.68271 27.9471 1.55825 27.9345 1.43503 27.9231C-0.248894 27.7639 -0.0721625 27.8322 0.114526 26.1775C0.673346 21.2237 1.22719 16.2686 1.78227 11.3136C2.00257 9.34822 2.22161 7.38287 2.44564 5.41878C2.46555 5.25584 2.51534 5.09795 2.53152 5.02722Z" fill="#F7A000"/>
<path d="M6.28024 2.19399C6.28024 3.41286 5.30075 4.40691 4.10968 4.39554C2.95097 4.38543 1.98268 3.40528 1.96401 2.2243C1.94534 1.01301 2.91363 0.00885538 4.11342 1.38008e-05C5.31569 -0.00882777 6.28149 0.967535 6.28024 2.19399Z" fill="#F7A000"/>
<path d="M9.47001 16.5048C10.915 16.6765 12.2766 16.8395 13.6369 17.0012C13.6506 17.0479 13.6643 17.0959 13.678 17.1426C13.1826 17.5051 12.686 17.8676 12.1907 18.2289C11.4365 18.7783 10.691 19.3429 9.92304 19.8721C9.47748 20.1791 9.10534 19.9871 9.14642 19.4692C9.22234 18.5105 9.35177 17.5569 9.47001 16.5048Z" fill="#F7A000"/>
</g>
<defs>
<clipPath id="clip0">
<rect width="23" height="28" fill="white"/>
</clipPath>
</defs>
</svg>
