<svg width="33" height="44" viewBox="0 0 33 44" fill="none" xmlns="http://www.w3.org/2000/svg">
<path d="M13.1348 22.7733V19.7156C13.1348 18.9351 13.7722 18.3023 14.5584 18.3023H17.4326C17.8102 18.3023 18.1723 18.4512 18.4393 18.7163C18.7063 18.9813 18.8563 19.3408 18.8563 19.7156V22.7733C18.8539 23.0978 18.9821 23.4099 19.2124 23.6402C19.4427 23.8705 19.7561 24 20.0829 24H22.0438C22.9596 24.0023 23.8388 23.6428 24.4872 23.0008C25.1356 22.3588 25.5 21.487 25.5 20.5778V11.8669C25.5 11.1325 25.1721 10.4358 24.6046 9.96467L17.934 4.67587C16.7737 3.74856 15.1111 3.7785 13.9854 4.74698L7.46701 9.96467C6.87274 10.422 6.51755 11.1206 6.5 11.8669V20.5689C6.5 22.4639 8.04738 24 9.95617 24H11.8723C12.5512 24 13.103 23.4562 13.1079 22.7822L13.1348 22.7733Z" fill="url(#paint0_linear)"/>
<path d="M0.839719 40V31.144H2.31572V34.972H6.04772V31.144H7.53572V40H6.04772V36.304H2.31572V40H0.839719ZM11.8112 40.06C11.1312 40.06 10.5792 39.964 10.1552 39.772C9.73119 39.58 9.41919 39.244 9.21919 38.764C9.02719 38.284 8.93119 37.62 8.93119 36.772C8.93119 35.884 9.03119 35.204 9.23119 34.732C9.43119 34.252 9.74319 33.924 10.1672 33.748C10.5912 33.572 11.1392 33.484 11.8112 33.484C12.4912 33.484 13.0432 33.576 13.4672 33.76C13.8992 33.944 14.2152 34.276 14.4152 34.756C14.6152 35.228 14.7152 35.9 14.7152 36.772C14.7152 37.636 14.6152 38.308 14.4152 38.788C14.2232 39.26 13.9152 39.592 13.4912 39.784C13.0672 39.968 12.5072 40.06 11.8112 40.06ZM11.8112 38.872C12.1312 38.872 12.3952 38.828 12.6032 38.74C12.8192 38.652 12.9752 38.46 13.0712 38.164C13.1752 37.86 13.2272 37.392 13.2272 36.76C13.2272 36.136 13.1752 35.676 13.0712 35.38C12.9752 35.084 12.8192 34.892 12.6032 34.804C12.3952 34.716 12.1312 34.672 11.8112 34.672C11.4912 34.672 11.2272 34.716 11.0192 34.804C10.8192 34.892 10.6672 35.084 10.5632 35.38C10.4592 35.676 10.4072 36.136 10.4072 36.76C10.4072 37.392 10.4592 37.86 10.5632 38.164C10.6672 38.46 10.8192 38.652 11.0192 38.74C11.2272 38.828 11.4912 38.872 11.8112 38.872ZM16.0373 40V33.568H17.2493L17.5253 34.24C17.8213 34.032 18.1453 33.852 18.4973 33.7C18.8573 33.54 19.2813 33.46 19.7693 33.46C20.1693 33.46 20.5053 33.548 20.7773 33.724C21.0493 33.9 21.2573 34.12 21.4013 34.384C21.5853 34.248 21.8093 34.108 22.0733 33.964C22.3373 33.82 22.6133 33.7 22.9013 33.604C23.1973 33.508 23.4893 33.46 23.7773 33.46C24.2733 33.46 24.6693 33.56 24.9653 33.76C25.2613 33.952 25.4733 34.224 25.6013 34.576C25.7373 34.92 25.8053 35.32 25.8053 35.776V40H24.3173V35.896C24.3173 35.552 24.2213 35.284 24.0293 35.092C23.8373 34.9 23.5773 34.804 23.2493 34.804C22.9613 34.804 22.6693 34.86 22.3733 34.972C22.0853 35.084 21.8213 35.22 21.5813 35.38C21.6373 35.564 21.6653 35.748 21.6653 35.932V40H20.1773V35.896C20.1773 35.552 20.0813 35.284 19.8893 35.092C19.6973 34.9 19.4373 34.804 19.1093 34.804C18.7973 34.804 18.5173 34.852 18.2693 34.948C18.0213 35.044 17.7733 35.172 17.5253 35.332V40H16.0373ZM29.9035 40.06C29.2075 40.06 28.6515 39.964 28.2355 39.772C27.8275 39.58 27.5315 39.248 27.3475 38.776C27.1715 38.296 27.0835 37.632 27.0835 36.784C27.0835 35.92 27.1675 35.248 27.3355 34.768C27.5115 34.288 27.8035 33.956 28.2115 33.772C28.6195 33.58 29.1715 33.484 29.8675 33.484C30.4755 33.484 30.9675 33.548 31.3435 33.676C31.7195 33.796 31.9915 34.016 32.1595 34.336C32.3355 34.656 32.4235 35.1 32.4235 35.668C32.4235 36.292 32.2435 36.724 31.8835 36.964C31.5235 37.204 31.0395 37.324 30.4315 37.324H28.5475C28.5635 37.724 28.6155 38.044 28.7035 38.284C28.7995 38.516 28.9675 38.684 29.2075 38.788C29.4555 38.892 29.8155 38.944 30.2875 38.944H32.2315V39.82C31.9035 39.884 31.5555 39.94 31.1875 39.988C30.8275 40.036 30.3995 40.06 29.9035 40.06ZM28.5355 36.424H30.2875C30.5675 36.424 30.7715 36.372 30.8995 36.268C31.0355 36.156 31.1035 35.956 31.1035 35.668C31.1035 35.252 31.0075 34.964 30.8155 34.804C30.6315 34.644 30.3155 34.564 29.8675 34.564C29.5315 34.564 29.2635 34.616 29.0635 34.72C28.8715 34.824 28.7355 35.012 28.6555 35.284C28.5755 35.556 28.5355 35.936 28.5355 36.424Z" fill="url(#paint1_linear)"/>
<defs>
<linearGradient id="paint0_linear" x1="24.284" y1="4" x2="9.02089" y2="18.7808" gradientUnits="userSpaceOnUse">
<stop stop-color="#5780F2"/>
<stop offset="1" stop-color="#0BA4F2"/>
</linearGradient>
<linearGradient id="paint1_linear" x1="30.888" y1="28" x2="21.4106" y2="47.9258" gradientUnits="userSpaceOnUse">
<stop stop-color="#5780F2"/>
<stop offset="1" stop-color="#0BA4F2"/>
</linearGradient>
</defs>
</svg>
