<svg width="30" height="30" viewBox="0 0 30 30" fill="none" xmlns="http://www.w3.org/2000/svg">
<path d="M15 0C6.73351 0 0 6.73307 0 15C0 23.2665 6.73351 30 15 30C23.2665 30 30 23.2665 30 15C30 6.73307 23.2665 0 15 0Z" fill="#FFE470"/>
<path d="M30 15C30 23.2665 23.2665 30 15 30V0C23.2665 0 30 6.73307 30 15Z" fill="#FFD400"/>
<path d="M26.6667 15C26.6667 21.4332 21.4332 26.6667 15 26.6667C8.56688 26.6667 3.33337 21.4332 3.33337 15C3.33337 8.56685 8.56688 3.33334 15 3.33334C21.4332 3.33334 26.6667 8.56685 26.6667 15Z" fill="#FDBF00"/>
<path d="M26.6667 15C26.6667 21.4332 21.4332 26.6667 15 26.6667V3.33334C21.4332 3.33334 26.6667 8.56685 26.6667 15Z" fill="#FF9F00"/>
<path d="M20 18.3333C20 20.5 18.6003 22.3333 16.6667 23.0334V25C16.6667 25.9332 15.9336 26.6667 15 26.6667C14.0664 26.6667 13.3333 25.9332 13.3333 25V23.0334C11.3997 22.3333 10 20.5 10 18.3333C10 17.3997 10.7331 16.6667 11.6667 16.6667C12.6003 16.6667 13.3333 17.3997 13.3333 18.3333C13.3333 19.2665 14.0664 20 15 20C15.9336 20 16.6667 19.2665 16.6667 18.3333C16.6667 17.3997 15.9336 16.6667 15 16.6667C12.2331 16.6667 10 14.4332 10 11.6667C10 9.50001 11.3997 7.66668 13.3333 6.96659V5.00001C13.3333 4.06642 14.0664 3.33334 15 3.33334C15.9336 3.33334 16.6667 4.06642 16.6667 5.00001V6.96659C18.6003 7.66668 20 9.50001 20 11.6667C20 12.5998 19.2669 13.3333 18.3333 13.3333C17.3997 13.3333 16.6667 12.5998 16.6667 11.6667C16.6667 10.7331 15.9336 10 15 10C14.0664 10 13.3333 10.7331 13.3333 11.6667C13.3333 12.5998 14.0664 13.3333 15 13.3333C17.7665 13.3333 20 15.5664 20 18.3333Z" fill="#FFE470"/>
<path d="M20 18.3333C20 20.5 18.6003 22.3333 16.6667 23.0334V25C16.6667 25.9332 15.9336 26.6667 15 26.6667V20C15.9336 20 16.6667 19.2665 16.6667 18.3333C16.6667 17.3997 15.9336 16.6667 15 16.6667V13.3333C17.7665 13.3333 20 15.5664 20 18.3333Z" fill="#FFD400"/>
<path d="M15 10V3.33334C15.9336 3.33334 16.6667 4.06642 16.6667 5.00001V6.96659C18.6003 7.66668 20 9.50001 20 11.6667C20 12.5998 19.2669 13.3333 18.3333 13.3333C17.3997 13.3333 16.6667 12.5998 16.6667 11.6667C16.6667 10.7331 15.9336 10 15 10Z" fill="#FFD400"/>
</svg>
