<svg width="20" height="20" viewBox="0 0 20 20" fill="none" xmlns="http://www.w3.org/2000/svg">
<path fill-rule="evenodd" clip-rule="evenodd" d="M7.18335 1.83331C7.18335 1.36386 6.80279 0.983307 6.33335 0.983307C5.86391 0.983307 5.48335 1.36386 5.48335 1.83331V2.81668H4.75002C2.62373 2.81668 0.900024 4.54039 0.900024 6.66668V15.3333C0.900024 17.4596 2.62373 19.1833 4.75002 19.1833H15.25C17.3763 19.1833 19.1 17.4596 19.1 15.3333V6.66668C19.1 4.54038 17.3763 2.81668 15.25 2.81668H14.5167V1.83331C14.5167 1.36386 14.1361 0.983307 13.6667 0.983307C13.1972 0.983307 12.8167 1.36386 12.8167 1.83331V2.81668H7.18335V1.83331ZM12.8167 5.49997V4.51668H7.18335V5.49997C7.18335 5.96942 6.80279 6.34997 6.33335 6.34997C5.86391 6.34997 5.48335 5.96942 5.48335 5.49997V4.51668H4.75002C3.56261 4.51668 2.60002 5.47927 2.60002 6.66668V7.39999H17.4V6.66668C17.4 5.47927 16.4374 4.51668 15.25 4.51668H14.5167V5.49997C14.5167 5.96942 14.1361 6.34997 13.6667 6.34997C13.1972 6.34997 12.8167 5.96942 12.8167 5.49997ZM17.4 9.09999H2.60002V15.3333C2.60002 16.5208 3.56261 17.4833 4.75002 17.4833H15.25C16.4374 17.4833 17.4 16.5208 17.4 15.3333V9.09999ZM5.87502 11.375C5.82899 11.375 5.79169 11.4123 5.79169 11.4583C5.79169 11.5044 5.82899 11.5417 5.87502 11.5417C5.92104 11.5417 5.95835 11.5044 5.95835 11.4583C5.95835 11.4123 5.92104 11.375 5.87502 11.375ZM5.87502 12.375C6.38128 12.375 6.79169 11.9646 6.79169 11.4583C6.79169 10.9521 6.38128 10.5417 5.87502 10.5417C5.36876 10.5417 4.95835 10.9521 4.95835 11.4583C4.95835 11.9646 5.36876 12.375 5.87502 12.375ZM9.91669 11.4583C9.91669 11.4123 9.954 11.375 10 11.375C10.046 11.375 10.0834 11.4123 10.0834 11.4583C10.0834 11.5044 10.046 11.5417 10 11.5417C9.954 11.5417 9.91669 11.5044 9.91669 11.4583ZM10.9167 11.4583C10.9167 11.9646 10.5063 12.375 10 12.375C9.49376 12.375 9.08335 11.9646 9.08335 11.4583C9.08335 10.9521 9.49376 10.5417 10 10.5417C10.5063 10.5417 10.9167 10.9521 10.9167 11.4583ZM14.125 11.375C14.079 11.375 14.0417 11.4123 14.0417 11.4583C14.0417 11.5044 14.079 11.5417 14.125 11.5417C14.171 11.5417 14.2084 11.5044 14.2084 11.4583C14.2084 11.4123 14.171 11.375 14.125 11.375ZM14.125 12.375C14.6313 12.375 15.0417 11.9646 15.0417 11.4583C15.0417 10.9521 14.6313 10.5417 14.125 10.5417C13.6188 10.5417 13.2084 10.9521 13.2084 11.4583C13.2084 11.9646 13.6188 12.375 14.125 12.375ZM5.79169 14.6667C5.79169 14.6206 5.829 14.5833 5.87502 14.5833C5.92104 14.5833 5.95835 14.6206 5.95835 14.6667C5.95835 14.7127 5.92104 14.75 5.87502 14.75C5.829 14.75 5.79169 14.7127 5.79169 14.6667ZM6.79169 14.6667C6.79169 15.1729 6.38128 15.5833 5.87502 15.5833C5.36876 15.5833 4.95835 15.1729 4.95835 14.6667C4.95835 14.1604 5.36876 13.75 5.87502 13.75C6.38128 13.75 6.79169 14.1604 6.79169 14.6667ZM10 14.5833C9.954 14.5833 9.91669 14.6206 9.91669 14.6667C9.91669 14.7127 9.954 14.75 10 14.75C10.046 14.75 10.0834 14.7127 10.0834 14.6667C10.0834 14.6206 10.046 14.5833 10 14.5833ZM10 15.5833C10.5063 15.5833 10.9167 15.1729 10.9167 14.6667C10.9167 14.1604 10.5063 13.75 10 13.75C9.49376 13.75 9.08335 14.1604 9.08335 14.6667C9.08335 15.1729 9.49376 15.5833 10 15.5833ZM14.0417 14.6667C14.0417 14.6206 14.079 14.5833 14.125 14.5833C14.171 14.5833 14.2084 14.6206 14.2084 14.6667C14.2084 14.7127 14.171 14.75 14.125 14.75C14.079 14.75 14.0417 14.7127 14.0417 14.6667ZM15.0417 14.6667C15.0417 15.1729 14.6313 15.5833 14.125 15.5833C13.6188 15.5833 13.2084 15.1729 13.2084 14.6667C13.2084 14.1604 13.6188 13.75 14.125 13.75C14.6313 13.75 15.0417 14.1604 15.0417 14.6667Z" fill="#F7A000"/>
</svg>
