<svg width="28" height="42" viewBox="0 0 28 42" fill="none" xmlns="http://www.w3.org/2000/svg">
<path d="M3.66275 38.072C3.38275 38.072 3.07075 38.06 2.72675 38.036C2.39075 38.012 2.06275 37.98 1.74275 37.94C1.42275 37.9 1.14675 37.856 0.91475 37.808V36.644C1.25075 36.668 1.66675 36.692 2.16275 36.716C2.65875 36.732 3.13475 36.74 3.59075 36.74C4.07075 36.74 4.46275 36.672 4.76675 36.536C5.07075 36.392 5.22275 36.108 5.22275 35.684V35.264C5.22275 34.616 4.87475 34.292 4.17875 34.292H3.35075C2.54275 34.292 1.91875 34.116 1.47875 33.764C1.04675 33.412 0.83075 32.808 0.83075 31.952V31.496C0.83075 30.64 1.06675 30.024 1.53875 29.648C2.01875 29.264 2.70275 29.072 3.59075 29.072C3.88675 29.072 4.19875 29.088 4.52675 29.12C4.85475 29.144 5.16675 29.18 5.46275 29.228C5.75875 29.268 6.01075 29.308 6.21875 29.348V30.512C5.85875 30.488 5.45475 30.464 5.00675 30.44C4.55875 30.416 4.14275 30.404 3.75875 30.404C3.29475 30.404 2.92675 30.48 2.65475 30.632C2.38275 30.784 2.24675 31.092 2.24675 31.556V31.856C2.24675 32.232 2.34675 32.496 2.54675 32.648C2.75475 32.8 3.05075 32.876 3.43475 32.876H4.35875C5.12675 32.876 5.69875 33.084 6.07475 33.5C6.45075 33.916 6.63875 34.444 6.63875 35.084V35.648C6.63875 36.312 6.51075 36.82 6.25475 37.172C5.99875 37.516 5.64675 37.752 5.19875 37.88C4.75075 38.008 4.23875 38.072 3.66275 38.072ZM10.6223 38.06C9.92628 38.06 9.37028 37.964 8.95428 37.772C8.54628 37.58 8.25028 37.248 8.06628 36.776C7.89028 36.296 7.80228 35.632 7.80228 34.784C7.80228 33.92 7.88628 33.248 8.05428 32.768C8.23028 32.288 8.52228 31.956 8.93028 31.772C9.33828 31.58 9.89028 31.484 10.5863 31.484C11.1943 31.484 11.6863 31.548 12.0623 31.676C12.4383 31.796 12.7103 32.016 12.8783 32.336C13.0543 32.656 13.1423 33.1 13.1423 33.668C13.1423 34.292 12.9623 34.724 12.6023 34.964C12.2423 35.204 11.7583 35.324 11.1503 35.324H9.26628C9.28228 35.724 9.33428 36.044 9.42228 36.284C9.51828 36.516 9.68628 36.684 9.92628 36.788C10.1743 36.892 10.5343 36.944 11.0063 36.944H12.9503V37.82C12.6223 37.884 12.2743 37.94 11.9063 37.988C11.5463 38.036 11.1183 38.06 10.6223 38.06ZM9.25428 34.424H11.0063C11.2863 34.424 11.4903 34.372 11.6183 34.268C11.7543 34.156 11.8223 33.956 11.8223 33.668C11.8223 33.252 11.7263 32.964 11.5343 32.804C11.3503 32.644 11.0343 32.564 10.5863 32.564C10.2503 32.564 9.98228 32.616 9.78228 32.72C9.59028 32.824 9.45428 33.012 9.37428 33.284C9.29428 33.556 9.25428 33.936 9.25428 34.424ZM14.463 38V31.568H15.675L15.951 32.24C16.215 32.04 16.535 31.86 16.911 31.7C17.295 31.54 17.691 31.46 18.099 31.46C18.603 31.46 18.999 31.564 19.287 31.772C19.575 31.98 19.779 32.256 19.899 32.6C20.027 32.936 20.091 33.308 20.091 33.716V38H18.603V33.896C18.603 33.552 18.507 33.284 18.315 33.092C18.123 32.9 17.863 32.804 17.535 32.804C17.223 32.804 16.943 32.852 16.695 32.948C16.447 33.044 16.199 33.172 15.951 33.332V38H14.463ZM23.6883 38.072C22.9203 38.072 22.3443 37.824 21.9603 37.328C21.5763 36.824 21.3843 35.996 21.3843 34.844C21.3843 34.052 21.4563 33.408 21.6003 32.912C21.7523 32.416 22.0043 32.056 22.3563 31.832C22.7163 31.6 23.2003 31.484 23.8083 31.484C24.1203 31.484 24.4323 31.516 24.7443 31.58C25.0563 31.644 25.3283 31.72 25.5603 31.808V28.844H27.0483V38H25.8123L25.5603 37.376C25.3603 37.552 25.0803 37.712 24.7203 37.856C24.3683 38 24.0243 38.072 23.6883 38.072ZM24.1803 36.872C24.4683 36.872 24.7283 36.828 24.9603 36.74C25.1923 36.644 25.3923 36.548 25.5603 36.452V32.876C25.3603 32.804 25.1563 32.74 24.9483 32.684C24.7403 32.628 24.5123 32.6 24.2643 32.6C23.9283 32.6 23.6563 32.664 23.4483 32.792C23.2483 32.912 23.1003 33.128 23.0043 33.44C22.9083 33.752 22.8603 34.196 22.8603 34.772C22.8603 35.308 22.9043 35.728 22.9923 36.032C23.0803 36.336 23.2203 36.552 23.4123 36.68C23.6043 36.808 23.8603 36.872 24.1803 36.872Z" fill="black"/>
<path d="M3.94596 9.31499C3.42396 9.14099 3.41896 8.85999 3.95596 8.68099L23.043 2.31899C23.572 2.14299 23.875 2.43899 23.727 2.95699L18.273 22.043C18.123 22.572 17.818 22.59 17.594 22.088L14 14L20 5.99999L12 12L3.94596 9.31499Z" fill="black"/>
</svg>
