<svg width="46" height="42" viewBox="0 0 46 42" fill="none" xmlns="http://www.w3.org/2000/svg">
<path d="M0.570922 38L3.45092 29.144H5.32292L8.20292 38H6.65492L5.97092 35.9H2.76692L2.09492 38H0.570922ZM3.11492 34.568H5.61092L4.36292 30.416L3.11492 34.568ZM11.4445 38.072C10.9325 38.072 10.4765 37.98 10.0765 37.796C9.67652 37.604 9.36052 37.272 9.12852 36.8C8.90452 36.328 8.79252 35.664 8.79252 34.808C8.79252 33.928 8.89652 33.248 9.10452 32.768C9.32052 32.288 9.62852 31.956 10.0285 31.772C10.4365 31.58 10.9205 31.484 11.4805 31.484C11.8485 31.484 12.2125 31.504 12.5725 31.544C12.9325 31.576 13.3005 31.64 13.6765 31.736V32.588H11.9245C11.5405 32.588 11.2245 32.648 10.9765 32.768C10.7365 32.888 10.5565 33.108 10.4365 33.428C10.3245 33.748 10.2685 34.208 10.2685 34.808C10.2685 35.4 10.3285 35.848 10.4485 36.152C10.5685 36.456 10.7485 36.664 10.9885 36.776C11.2365 36.888 11.5525 36.944 11.9365 36.944H13.7725V37.784C13.4765 37.864 13.1165 37.932 12.6925 37.988C12.2765 38.044 11.8605 38.072 11.4445 38.072ZM17.3273 38.072C16.8153 38.072 16.3593 37.98 15.9593 37.796C15.5593 37.604 15.2433 37.272 15.0113 36.8C14.7873 36.328 14.6753 35.664 14.6753 34.808C14.6753 33.928 14.7793 33.248 14.9873 32.768C15.2033 32.288 15.5113 31.956 15.9113 31.772C16.3193 31.58 16.8033 31.484 17.3633 31.484C17.7313 31.484 18.0953 31.504 18.4553 31.544C18.8153 31.576 19.1833 31.64 19.5593 31.736V32.588H17.8073C17.4233 32.588 17.1073 32.648 16.8593 32.768C16.6193 32.888 16.4393 33.108 16.3193 33.428C16.2073 33.748 16.1513 34.208 16.1513 34.808C16.1513 35.4 16.2113 35.848 16.3313 36.152C16.4513 36.456 16.6313 36.664 16.8713 36.776C17.1193 36.888 17.4353 36.944 17.8193 36.944H19.6553V37.784C19.3593 37.864 18.9993 37.932 18.5753 37.988C18.1593 38.044 17.7433 38.072 17.3273 38.072ZM23.4381 38.06C22.7581 38.06 22.2061 37.964 21.7821 37.772C21.3581 37.58 21.0461 37.244 20.8461 36.764C20.6541 36.284 20.5581 35.62 20.5581 34.772C20.5581 33.884 20.6581 33.204 20.8581 32.732C21.0581 32.252 21.3701 31.924 21.7941 31.748C22.2181 31.572 22.7661 31.484 23.4381 31.484C24.1181 31.484 24.6701 31.576 25.0941 31.76C25.5261 31.944 25.8421 32.276 26.0421 32.756C26.2421 33.228 26.3421 33.9 26.3421 34.772C26.3421 35.636 26.2421 36.308 26.0421 36.788C25.8501 37.26 25.5421 37.592 25.1181 37.784C24.6941 37.968 24.1341 38.06 23.4381 38.06ZM23.4381 36.872C23.7581 36.872 24.0221 36.828 24.2301 36.74C24.4461 36.652 24.6021 36.46 24.6981 36.164C24.8021 35.86 24.8541 35.392 24.8541 34.76C24.8541 34.136 24.8021 33.676 24.6981 33.38C24.6021 33.084 24.4461 32.892 24.2301 32.804C24.0221 32.716 23.7581 32.672 23.4381 32.672C23.1181 32.672 22.8541 32.716 22.6461 32.804C22.4461 32.892 22.2941 33.084 22.1901 33.38C22.0861 33.676 22.0341 34.136 22.0341 34.76C22.0341 35.392 22.0861 35.86 22.1901 36.164C22.2941 36.46 22.4461 36.652 22.6461 36.74C22.8541 36.828 23.1181 36.872 23.4381 36.872ZM29.5242 38.072C28.9322 38.072 28.4722 37.908 28.1442 37.58C27.8162 37.244 27.6522 36.756 27.6522 36.116V31.568H29.1402V35.684C29.1402 36.108 29.2362 36.392 29.4282 36.536C29.6202 36.68 29.8882 36.752 30.2322 36.752C30.5122 36.752 30.7802 36.708 31.0362 36.62C31.3002 36.532 31.5522 36.404 31.7922 36.236V31.568H33.2802V38H32.0682L31.7922 37.328C31.4882 37.52 31.1402 37.692 30.7482 37.844C30.3642 37.996 29.9562 38.072 29.5242 38.072ZM34.7775 38V31.568H35.9895L36.2655 32.24C36.5295 32.04 36.8495 31.86 37.2255 31.7C37.6095 31.54 38.0055 31.46 38.4135 31.46C38.9175 31.46 39.3135 31.564 39.6015 31.772C39.8895 31.98 40.0935 32.256 40.2135 32.6C40.3415 32.936 40.4055 33.308 40.4055 33.716V38H38.9175V33.896C38.9175 33.552 38.8215 33.284 38.6295 33.092C38.4375 32.9 38.1775 32.804 37.8495 32.804C37.5375 32.804 37.2575 32.852 37.0095 32.948C36.7615 33.044 36.5135 33.172 36.2655 33.332V38H34.7775ZM44.2308 38C43.5348 38 43.0268 37.836 42.7068 37.508C42.3868 37.18 42.2388 36.608 42.2628 35.792L42.3108 32.768H41.3028V31.808L42.3588 31.568L42.5748 29.768H43.7388V31.568H45.3708V32.768H43.7388V35.78C43.7388 36.06 43.7748 36.272 43.8468 36.416C43.9188 36.56 44.0148 36.664 44.1348 36.728C44.2548 36.784 44.3748 36.816 44.4948 36.824L45.2988 36.908V38H44.2308Z" fill="black"/>
<path d="M16.334 4.545C17.3607 3.62528 18.5667 2.92799 19.876 2.497C20.2504 2.96603 20.7257 3.34463 21.2665 3.60467C21.8074 3.86471 22.3999 3.99949 23 3.999C23.6001 3.99949 24.1926 3.86471 24.7335 3.60467C25.2743 3.34463 25.7496 2.96603 26.124 2.497C27.4333 2.92799 28.6393 3.62528 29.666 4.545C29.4475 5.10345 29.3576 5.70394 29.4029 6.30189C29.4483 6.89984 29.6278 7.4799 29.928 7.999C30.2276 8.51909 30.6406 8.96495 31.1363 9.30342C31.6319 9.64189 32.1975 9.86427 32.791 9.954C33.0715 11.3029 33.0715 12.6951 32.791 14.044C31.631 14.222 30.561 14.904 29.928 15.999C29.6276 16.5182 29.4481 17.0985 29.4027 17.6966C29.3573 18.2947 29.4473 18.8954 29.666 19.454C28.6392 20.3734 27.4332 21.0703 26.124 21.501C25.7495 21.0322 25.2742 20.6537 24.7333 20.3939C24.1925 20.134 23.6 19.9994 23 20C22.3999 19.9995 21.8074 20.1343 21.2665 20.3943C20.7257 20.6544 20.2504 21.033 19.876 21.502C18.5668 21.0713 17.3608 20.3744 16.334 19.455C16.5526 18.8964 16.6426 18.2957 16.5973 17.6976C16.5519 17.0995 16.3724 16.5192 16.072 16C15.7723 15.4801 15.3592 15.0344 14.8636 14.6961C14.3679 14.3578 13.8024 14.1356 13.209 14.046C12.9283 12.6968 12.9283 11.3042 13.209 9.955C13.8025 9.86526 14.3681 9.64289 14.8637 9.30442C15.3594 8.96595 15.7724 8.52009 16.072 8C16.3722 7.4809 16.5517 6.90084 16.597 6.30289C16.6424 5.70494 16.5525 5.10445 16.334 4.546V4.545ZM24.5 14.597C24.8439 14.4015 25.1458 14.1398 25.3882 13.8271C25.6306 13.5144 25.8088 13.1569 25.9124 12.7751C26.0161 12.3933 26.0432 11.9947 25.9922 11.6024C25.9412 11.21 25.8131 10.8317 25.6153 10.489C25.4175 10.1464 25.1538 9.84627 24.8395 9.60594C24.5252 9.36562 24.1665 9.18983 23.784 9.08871C23.4015 8.98758 23.0028 8.96311 22.6108 9.01671C22.2188 9.0703 21.8413 9.20091 21.5 9.401C20.8166 9.80165 20.3194 10.4564 20.1169 11.2222C19.9144 11.9881 20.0231 12.803 20.4192 13.4891C20.8153 14.1751 21.4667 14.6767 22.2312 14.8842C22.9957 15.0918 23.8113 14.9886 24.5 14.597Z" fill="black"/>
</svg>
