<svg width="43" height="40" viewBox="0 0 43 40" fill="none" xmlns="http://www.w3.org/2000/svg">
<path d="M0.611938 36L3.49194 27.144H5.36394L8.24394 36H6.69594L6.01194 33.9H2.80794L2.13594 36H0.611938ZM3.15594 32.568H5.65194L4.40394 28.416L3.15594 32.568ZM11.4855 36.072C10.9735 36.072 10.5175 35.98 10.1175 35.796C9.71753 35.604 9.40153 35.272 9.16953 34.8C8.94553 34.328 8.83353 33.664 8.83353 32.808C8.83353 31.928 8.93753 31.248 9.14553 30.768C9.36153 30.288 9.66953 29.956 10.0695 29.772C10.4775 29.58 10.9615 29.484 11.5215 29.484C11.8895 29.484 12.2535 29.504 12.6135 29.544C12.9735 29.576 13.3415 29.64 13.7175 29.736V30.588H11.9655C11.5815 30.588 11.2655 30.648 11.0175 30.768C10.7775 30.888 10.5975 31.108 10.4775 31.428C10.3655 31.748 10.3095 32.208 10.3095 32.808C10.3095 33.4 10.3695 33.848 10.4895 34.152C10.6095 34.456 10.7895 34.664 11.0295 34.776C11.2775 34.888 11.5935 34.944 11.9775 34.944H13.8135V35.784C13.5175 35.864 13.1575 35.932 12.7335 35.988C12.3175 36.044 11.9015 36.072 11.4855 36.072ZM17.2483 36C16.5523 36 16.0443 35.836 15.7243 35.508C15.4043 35.18 15.2563 34.608 15.2803 33.792L15.3283 30.768H14.3203V29.808L15.3763 29.568L15.5923 27.768H16.7563V29.568H18.3883V30.768H16.7563V33.78C16.7563 34.06 16.7923 34.272 16.8643 34.416C16.9363 34.56 17.0323 34.664 17.1523 34.728C17.2723 34.784 17.3923 34.816 17.5123 34.824L18.3163 34.908V36H17.2483ZM19.6707 28.548C19.5187 28.548 19.4427 28.476 19.4427 28.332V27.24C19.4427 27.08 19.5187 27 19.6707 27H20.7987C20.9427 27 21.0147 27.08 21.0147 27.24V28.332C21.0147 28.476 20.9427 28.548 20.7987 28.548H19.6707ZM19.4787 36V29.568H20.9667V36H19.4787ZM24.1584 36L21.9144 29.568H23.4384L25.0464 34.62L26.6904 29.568H28.2024L25.8624 36H24.1584ZM29.3269 28.548C29.1749 28.548 29.0989 28.476 29.0989 28.332V27.24C29.0989 27.08 29.1749 27 29.3269 27H30.4549C30.5989 27 30.6709 27.08 30.6709 27.24V28.332C30.6709 28.476 30.5989 28.548 30.4549 28.548H29.3269ZM29.1349 36V29.568H30.6229V36H29.1349ZM34.4866 36C33.7906 36 33.2826 35.836 32.9626 35.508C32.6426 35.18 32.4946 34.608 32.5186 33.792L32.5666 30.768H31.5586V29.808L32.6146 29.568L32.8306 27.768H33.9946V29.568H35.6266V30.768H33.9946V33.78C33.9946 34.06 34.0306 34.272 34.1026 34.416C34.1746 34.56 34.2706 34.664 34.3906 34.728C34.5106 34.784 34.6306 34.816 34.7506 34.824L35.5546 34.908V36H34.4866ZM38.6369 38.844L39.3809 36C38.9089 36 38.5089 35.868 38.1809 35.604C37.8529 35.34 37.6129 34.924 37.4609 34.356L36.1409 29.568H37.6769L38.8409 34.056C38.9129 34.296 39.0049 34.468 39.1169 34.572C39.2289 34.668 39.3369 34.728 39.4409 34.752C39.5449 34.768 39.6129 34.776 39.6449 34.776L40.9769 29.568H42.4889L40.4249 37.656L39.8489 38.844H38.6369Z" fill="black"/>
<path d="M9 9.93694H14.2632L17.9181 4.31532L21.8655 17L25.3743 1L28.0058 9.93694H34" stroke="black" stroke-width="2" stroke-linecap="round" stroke-linejoin="round"/>
</svg>
