<svg width="245" height="78" viewBox="0 0 245 78" fill="none" xmlns="http://www.w3.org/2000/svg">
<path d="M18.4762 10.444C18.9562 11.596 19.4242 12.808 19.8802 14.08C20.3602 15.328 20.7082 16.588 20.9242 17.86C21.1402 19.132 21.1762 20.404 21.0322 21.676C20.9122 22.948 20.5042 24.172 19.8082 25.348C19.4002 26.14 18.8722 26.836 18.2242 27.436C17.6002 28.012 16.9162 28.54 16.1722 29.02C15.4282 29.5 14.6122 29.932 13.7242 30.316C12.8362 30.676 11.9122 30.952 10.9522 31.144C9.99219 31.36 9.03219 31.456 8.07219 31.432C7.11219 31.408 6.20019 31.24 5.33619 30.928C4.61619 30.664 3.93219 30.292 3.28419 29.812C2.63619 29.332 2.10819 28.756 1.70019 28.084C1.26819 27.34 0.992187 26.536 0.872187 25.672C0.728187 24.808 0.680187 23.956 0.728187 23.116C0.752187 22.3 0.908187 21.496 1.19619 20.704C1.46019 19.912 1.82019 19.156 2.27619 18.436C2.70819 17.716 3.21219 17.044 3.78819 16.42C4.36419 15.796 4.96419 15.232 5.58819 14.728C6.09219 14.32 6.72819 13.936 7.49619 13.576C8.26419 13.216 9.04419 12.976 9.83619 12.856C10.6522 12.712 11.4322 12.736 12.1762 12.928C12.9202 13.12 13.5202 13.576 13.9762 14.296C14.2162 14.68 14.3842 15.1 14.4802 15.556C14.5762 15.988 14.6122 16.444 14.5882 16.924C14.5882 17.38 14.5402 17.836 14.4442 18.292C14.3482 18.748 14.2282 19.168 14.0842 19.552C13.8682 20.2 13.6042 20.704 13.2922 21.064C12.9802 21.4 12.6202 21.724 12.2122 22.036C12.0442 22.156 11.9362 22.192 11.8882 22.144C11.8642 22.072 11.8522 21.976 11.8522 21.856C11.8762 21.712 11.9122 21.568 11.9602 21.424C12.0322 21.256 12.0922 21.136 12.1402 21.064C12.3322 20.728 12.4282 20.452 12.4282 20.236C12.4522 20.02 12.5242 19.72 12.6442 19.336C12.8122 18.664 12.7882 17.956 12.5722 17.212C12.3562 16.468 12.0322 15.856 11.6002 15.376C11.0482 14.776 10.3882 14.428 9.62019 14.332C8.87619 14.212 8.14419 14.32 7.42419 14.656C6.72819 15.016 6.11619 15.532 5.58819 16.204C5.08419 16.852 4.66419 17.512 4.32819 18.184C3.94419 18.88 3.65619 19.636 3.46419 20.452C3.29619 21.244 3.23619 22.048 3.28419 22.864C3.33219 23.656 3.46419 24.448 3.68019 25.24C3.92019 26.008 4.24419 26.716 4.65219 27.364C5.08419 28.012 5.61219 28.576 6.23619 29.056C6.86019 29.512 7.60419 29.824 8.46819 29.992C9.23619 30.16 10.0522 30.184 10.9162 30.064C11.8042 29.92 12.5962 29.668 13.2922 29.308C14.0602 28.9 14.7082 28.36 15.2362 27.688C15.7882 26.992 16.2562 26.272 16.6402 25.528C17.0482 24.784 17.3122 24.004 17.4322 23.188C17.5762 22.348 17.6122 21.52 17.5402 20.704C17.4682 19.864 17.3002 19.036 17.0362 18.22C16.7722 17.404 16.4482 16.636 16.0642 15.916C15.4882 14.764 15.0682 13.54 14.8042 12.244C14.5402 10.948 14.4802 9.676 14.6242 8.428C14.7922 7.18 15.1882 6.004 15.8122 4.9C16.4362 3.796 17.3482 2.86 18.5482 2.092C19.1482 1.636 19.8442 1.276 20.6362 1.012C21.4282 0.723999 22.2202 0.579999 23.0122 0.579999C23.8282 0.579999 24.5842 0.747999 25.2802 1.084C26.0002 1.396 26.6002 1.912 27.0802 2.632C27.5362 3.328 27.7882 4.12 27.8362 5.008C27.8842 5.896 27.7642 6.76 27.4762 7.6C27.1882 8.44 26.7442 9.196 26.1442 9.868C25.5682 10.516 24.8722 10.96 24.0562 11.2C23.6482 11.32 23.3602 11.368 23.1922 11.344C23.0482 11.32 22.9762 11.26 22.9762 11.164C22.9762 11.068 23.0242 10.96 23.1202 10.84C23.2162 10.72 23.3242 10.624 23.4442 10.552C23.7562 10.312 24.0202 10.012 24.2362 9.652C24.4762 9.268 24.6922 8.92 24.8842 8.608C25.2682 7.912 25.4602 7.12 25.4602 6.232C25.4842 5.344 25.3282 4.528 24.9922 3.784C24.6802 3.04 24.2002 2.464 23.5522 2.056C22.9042 1.648 22.1122 1.564 21.1762 1.804C20.3842 2.188 19.7482 2.716 19.2682 3.388C18.7882 4.036 18.4402 4.756 18.2242 5.548C18.0082 6.34 17.9242 7.168 17.9722 8.032C18.0202 8.872 18.1882 9.676 18.4762 10.444ZM24.3473 28.12C24.4193 28.672 24.6113 29.044 24.9233 29.236C25.2353 29.404 25.5953 29.464 26.0033 29.416C26.4353 29.368 26.8673 29.248 27.2993 29.056C27.7313 28.864 28.0913 28.672 28.3793 28.48C29.0513 28.072 29.7233 27.544 30.3953 26.896C31.0913 26.224 31.7393 25.552 32.3393 24.88C32.9393 24.184 33.4793 23.536 33.9593 22.936C34.4393 22.336 34.8233 21.88 35.1113 21.568C35.2793 21.376 35.3873 21.34 35.4353 21.46C35.5073 21.556 35.5193 21.7 35.4713 21.892C35.3513 22.252 35.1113 22.696 34.7513 23.224C34.3913 23.728 33.9593 24.268 33.4553 24.844C32.9513 25.42 32.3993 26.008 31.7993 26.608C31.2233 27.208 30.6473 27.76 30.0713 28.264C29.4953 28.768 28.9553 29.212 28.4513 29.596C27.9713 29.98 27.5753 30.256 27.2633 30.424C26.8073 30.688 26.2793 30.892 25.6793 31.036C25.1033 31.204 24.5273 31.276 23.9513 31.252C23.3993 31.228 22.8713 31.084 22.3673 30.82C21.8873 30.556 21.5033 30.136 21.2153 29.56C20.9753 29.056 20.8553 28.516 20.8553 27.94C20.8313 27.364 20.8913 26.788 21.0353 26.212C21.1553 25.636 21.3353 25.084 21.5753 24.556C21.7913 24.004 22.0313 23.488 22.2953 23.008C22.9913 21.664 23.8433 20.464 24.8513 19.408C25.8593 18.352 27.0113 17.44 28.3073 16.672C28.9313 16.264 29.5793 15.928 30.2513 15.664C30.9473 15.4 31.6553 15.208 32.3753 15.088C32.8313 14.992 33.3233 14.968 33.8513 15.016C34.3793 15.064 34.7753 15.316 35.0393 15.772C35.2553 16.108 35.3513 16.468 35.3273 16.852C35.3033 17.212 35.2193 17.572 35.0753 17.932C34.9313 18.292 34.7393 18.628 34.4993 18.94C34.2833 19.252 34.0553 19.528 33.8153 19.768C33.2393 20.392 32.5793 20.932 31.8353 21.388C31.1153 21.844 30.3833 22.24 29.6393 22.576C29.2313 22.744 28.8233 22.9 28.4153 23.044C28.0313 23.164 27.6233 23.284 27.1913 23.404C26.9513 23.452 26.6633 23.488 26.3273 23.512C25.9913 23.536 25.7393 23.644 25.5713 23.836C25.3793 24.028 25.2233 24.316 25.1033 24.7C25.0073 25.084 24.8993 25.408 24.7793 25.672C24.6113 26.056 24.4793 26.464 24.3833 26.896C24.3113 27.304 24.2993 27.712 24.3473 28.12ZM26.1113 22.72C26.9513 22.672 27.7073 22.408 28.3793 21.928C29.0753 21.448 29.7353 20.932 30.3593 20.38C30.6713 20.116 30.9593 19.84 31.2233 19.552C31.5113 19.24 31.7633 18.916 31.9793 18.58C32.1233 18.316 32.2913 17.992 32.4833 17.608C32.6753 17.2 32.7593 16.84 32.7353 16.528C32.7113 16.264 32.6273 16.108 32.4833 16.06C32.3393 16.012 32.1593 16.036 31.9433 16.132C31.7273 16.204 31.4873 16.336 31.2233 16.528C30.9833 16.696 30.7553 16.876 30.5393 17.068C30.3233 17.26 30.1313 17.452 29.9633 17.644C29.7953 17.812 29.6873 17.92 29.6393 17.968C28.9433 18.688 28.3073 19.456 27.7313 20.272C27.1793 21.064 26.6393 21.88 26.1113 22.72ZM37.2015 17.428C37.3935 17.164 37.4895 16.9 37.4895 16.636C37.4895 16.372 37.5015 16.084 37.5255 15.772C37.5495 15.508 37.5495 15.364 37.5255 15.34C37.5255 15.292 37.6215 15.268 37.8135 15.268C37.9815 15.268 38.2575 15.256 38.6415 15.232C39.0255 15.208 39.4095 15.196 39.7935 15.196C40.2015 15.172 40.5495 15.16 40.8375 15.16C41.1495 15.136 41.2935 15.124 41.2695 15.124C41.3175 15.196 41.3655 15.304 41.4135 15.448C41.4855 15.592 41.5215 15.736 41.5215 15.88C41.4735 16.216 41.3535 16.564 41.1615 16.924C40.9935 17.284 40.8375 17.632 40.6935 17.968C41.1735 17.56 41.6535 17.164 42.1335 16.78C42.6135 16.396 43.1295 16.06 43.6815 15.772C43.9215 15.628 44.1975 15.496 44.5095 15.376C44.8215 15.256 45.1455 15.172 45.4815 15.124C45.8175 15.076 46.1535 15.064 46.4895 15.088C46.8255 15.088 47.1375 15.148 47.4255 15.268C48.0735 15.58 48.4215 16.048 48.4695 16.672C48.5415 17.296 48.5055 17.908 48.3615 18.508C48.0975 19.348 47.6775 20.164 47.1015 20.956C46.5255 21.724 45.9975 22.468 45.5175 23.188C45.0855 23.836 44.6655 24.484 44.2575 25.132C43.8495 25.78 43.4535 26.452 43.0695 27.148C42.9975 27.292 42.8895 27.496 42.7455 27.76C42.6015 28 42.4935 28.252 42.4215 28.516C42.3495 28.756 42.3495 28.972 42.4215 29.164C42.4935 29.332 42.7095 29.392 43.0695 29.344C43.8375 29.152 44.5095 28.84 45.0855 28.408C45.6855 27.952 46.2255 27.436 46.7055 26.86C47.1855 26.284 47.6295 25.672 48.0375 25.024C48.4695 24.376 48.9015 23.764 49.3335 23.188C49.3815 23.116 49.4535 22.984 49.5495 22.792C49.6455 22.6 49.7535 22.432 49.8735 22.288C50.0175 22.144 50.1495 22.048 50.2695 22C50.4135 21.952 50.5575 22.024 50.7015 22.216C50.7735 22.336 50.7855 22.468 50.7375 22.612C50.7135 22.756 50.6535 22.912 50.5575 23.08C50.4615 23.224 50.3655 23.368 50.2695 23.512C50.1735 23.632 50.0895 23.728 50.0175 23.8C49.4415 24.592 48.8295 25.408 48.1815 26.248C47.5575 27.064 46.8855 27.832 46.1655 28.552C45.4455 29.248 44.6535 29.86 43.7895 30.388C42.9255 30.892 41.9775 31.228 40.9455 31.396C40.5135 31.42 40.1175 31.336 39.7575 31.144C39.4215 30.976 39.1575 30.664 38.9655 30.208C38.7495 29.704 38.6775 29.176 38.7495 28.624C38.8455 28.072 39.0135 27.532 39.2535 27.004C39.5175 26.452 39.8055 25.924 40.1175 25.42C40.4535 24.916 40.7535 24.46 41.0175 24.052C41.4495 23.356 41.8935 22.66 42.3495 21.964C42.8295 21.268 43.2735 20.572 43.6815 19.876C43.8735 19.612 44.0535 19.348 44.2215 19.084C44.4135 18.796 44.5815 18.508 44.7255 18.22C44.8455 18.028 44.9295 17.788 44.9775 17.5C45.0495 17.212 44.9775 16.996 44.7615 16.852C44.5695 16.732 44.3535 16.72 44.1135 16.816C43.8975 16.912 43.6935 16.996 43.5015 17.068C42.6855 17.428 41.9535 17.956 41.3055 18.652C40.6815 19.324 40.0935 19.984 39.5415 20.632C39.3015 20.896 39.0855 21.172 38.8935 21.46C38.7015 21.724 38.5095 22 38.3175 22.288C37.4775 23.584 36.6255 24.88 35.7615 26.176C34.9215 27.448 34.0815 28.732 33.2415 30.028C33.1935 30.148 33.1095 30.304 32.9895 30.496C32.8935 30.688 32.7975 30.832 32.7015 30.928C32.5815 31.024 32.3895 31.048 32.1255 31C31.8615 30.976 31.6695 30.976 31.5495 31C30.8535 31 30.3375 31 30.0015 31C29.6415 31 29.4255 30.952 29.3535 30.856C29.2575 30.736 29.2815 30.532 29.4255 30.244C29.5695 29.956 29.8095 29.524 30.1455 28.948C31.2255 27.244 32.2815 25.552 33.3135 23.872C34.3695 22.192 35.4135 20.488 36.4455 18.76C36.5655 18.544 36.6855 18.328 36.8055 18.112C36.9495 17.896 37.0815 17.668 37.2015 17.428ZM65.817 6.808C65.937 6.568 66.057 6.328 66.177 6.088C66.321 5.848 66.405 5.596 66.429 5.332C66.429 5.164 66.417 5.02 66.393 4.9C66.369 4.78 66.417 4.66 66.537 4.54C66.681 4.42 66.897 4.324 67.185 4.252C67.497 4.156 67.809 4.096 68.121 4.072C68.457 4.024 68.781 4 69.093 4C69.405 3.976 69.657 3.976 69.849 4C70.209 4.048 70.401 4.204 70.425 4.468C70.473 4.732 70.449 5.032 70.353 5.368C70.257 5.68 70.113 5.992 69.921 6.304C69.753 6.616 69.633 6.844 69.561 6.988C68.217 9.388 66.849 11.752 65.457 14.08C64.089 16.384 62.757 18.76 61.461 21.208C61.149 21.76 60.861 22.312 60.597 22.864C60.333 23.392 60.057 23.932 59.769 24.484C59.433 25.012 59.097 25.54 58.761 26.068C58.449 26.596 58.209 27.136 58.041 27.688C57.993 27.88 57.969 28.084 57.969 28.3C57.969 28.516 58.005 28.696 58.077 28.84C58.149 28.984 58.257 29.092 58.401 29.164C58.545 29.212 58.749 29.188 59.013 29.092C59.613 28.66 60.201 28.156 60.777 27.58C61.377 26.98 61.929 26.356 62.433 25.708C62.961 25.06 63.453 24.412 63.909 23.764C64.389 23.092 64.821 22.456 65.205 21.856C65.277 21.76 65.385 21.652 65.529 21.532C65.673 21.388 65.817 21.4 65.961 21.568C66.033 21.64 66.021 21.796 65.925 22.036C64.941 23.692 63.813 25.3 62.541 26.86C61.269 28.42 59.793 29.716 58.113 30.748C57.609 30.988 57.069 31.084 56.493 31.036C55.941 30.988 55.497 30.712 55.161 30.208C54.897 29.752 54.753 29.26 54.729 28.732C54.729 28.18 54.789 27.664 54.909 27.184C54.549 27.664 54.141 28.12 53.685 28.552C53.229 28.984 52.785 29.404 52.353 29.812C51.945 30.196 51.477 30.568 50.949 30.928C50.421 31.288 49.857 31.492 49.257 31.54C48.729 31.612 48.273 31.54 47.889 31.324C47.529 31.132 47.241 30.856 47.025 30.496C46.785 30.136 46.617 29.728 46.521 29.272C46.425 28.816 46.401 28.372 46.449 27.94C46.521 26.884 46.761 25.852 47.169 24.844C47.577 23.836 48.093 22.888 48.717 22C49.365 21.088 50.073 20.248 50.841 19.48C51.633 18.688 52.449 17.992 53.289 17.392C54.417 16.528 55.641 15.916 56.961 15.556C57.273 15.508 57.597 15.46 57.933 15.412C58.293 15.34 58.629 15.364 58.941 15.484C59.229 15.604 59.445 15.796 59.589 16.06C59.757 16.3 59.925 16.564 60.093 16.852C62.061 13.54 63.969 10.192 65.817 6.808ZM52.641 28.516C54.177 26.98 55.533 25.264 56.709 23.368C57.885 21.472 58.725 19.468 59.229 17.356C59.181 16.732 58.941 16.372 58.509 16.276C58.101 16.18 57.669 16.288 57.213 16.6C56.733 16.936 56.289 17.32 55.881 17.752C55.497 18.16 55.125 18.592 54.765 19.048C54.549 19.288 54.237 19.66 53.829 20.164C53.445 20.644 53.025 21.196 52.569 21.82C52.113 22.444 51.657 23.104 51.201 23.8C50.745 24.496 50.361 25.18 50.049 25.852C49.737 26.5 49.521 27.112 49.401 27.688C49.305 28.24 49.377 28.696 49.617 29.056C49.785 29.32 50.013 29.464 50.301 29.488C50.589 29.512 50.877 29.488 51.165 29.416C51.453 29.32 51.729 29.188 51.993 29.02C52.281 28.828 52.497 28.66 52.641 28.516ZM79.4416 17.788C79.5376 17.62 79.6096 17.404 79.6576 17.14C79.7296 16.876 79.8016 16.624 79.8736 16.384C79.9456 16.12 80.0416 15.892 80.1616 15.7C80.2816 15.508 80.4496 15.388 80.6656 15.34H83.8336C83.9776 15.796 84.0016 16.228 83.9056 16.636C83.8096 17.044 83.6656 17.428 83.4736 17.788C84.1456 17.26 84.8056 16.72 85.4536 16.168C86.1256 15.592 86.8936 15.208 87.7576 15.016C88.0696 14.944 88.3816 14.932 88.6936 14.98C89.0296 15.004 89.3296 15.088 89.5936 15.232C89.8576 15.376 90.0736 15.58 90.2416 15.844C90.4336 16.084 90.5416 16.384 90.5656 16.744C90.5656 16.888 90.5416 17.104 90.4936 17.392C90.4696 17.656 90.5176 17.836 90.6376 17.932C90.7096 17.98 90.8296 17.932 90.9976 17.788C91.1896 17.62 91.3816 17.44 91.5736 17.248C91.7656 17.056 91.9456 16.864 92.1136 16.672C92.2816 16.48 92.3896 16.36 92.4376 16.312C92.7496 16.072 93.0976 15.844 93.4816 15.628C93.8656 15.388 94.2616 15.196 94.6696 15.052C95.1016 14.908 95.5336 14.824 95.9656 14.8C96.3976 14.776 96.8176 14.848 97.2256 15.016C97.5616 15.16 97.8256 15.364 98.0176 15.628C98.2096 15.868 98.3416 16.144 98.4136 16.456C98.5096 16.744 98.5456 17.056 98.5216 17.392C98.4976 17.728 98.4496 18.052 98.3776 18.364C97.6096 20.092 96.7216 21.724 95.7136 23.26C94.7056 24.796 93.7816 26.392 92.9416 28.048C92.8456 28.384 92.8336 28.66 92.9056 28.876C92.9776 29.092 93.2176 29.176 93.6256 29.128C94.0336 29.08 94.4296 28.9 94.8136 28.588C95.1976 28.252 95.5336 27.952 95.8216 27.688C96.4936 27.064 97.1176 26.392 97.6936 25.672C98.2936 24.928 98.8576 24.16 99.3856 23.368C99.5056 23.152 99.6616 22.912 99.8536 22.648C100.046 22.384 100.274 22.156 100.538 21.964C100.706 21.94 100.826 21.964 100.898 22.036C100.97 22.108 100.994 22.216 100.97 22.36C100.97 22.48 100.934 22.612 100.862 22.756C100.814 22.876 100.766 22.984 100.718 23.08C100.238 23.824 99.7096 24.532 99.1336 25.204C98.5816 25.876 98.0296 26.536 97.4776 27.184C96.9016 27.88 96.2896 28.552 95.6416 29.2C94.9936 29.824 94.2496 30.328 93.4096 30.712C93.0736 30.856 92.7136 30.976 92.3296 31.072C91.9696 31.168 91.6096 31.204 91.2496 31.18C90.8896 31.18 90.5536 31.096 90.2416 30.928C89.9296 30.76 89.6776 30.496 89.4856 30.136C89.2936 29.8 89.1976 29.44 89.1976 29.056C89.2216 28.672 89.2816 28.288 89.3776 27.904C89.4976 27.496 89.6416 27.112 89.8096 26.752C90.0016 26.368 90.1696 26.02 90.3136 25.708C90.8176 24.796 91.3456 23.896 91.8976 23.008C92.4496 22.12 92.9896 21.22 93.5176 20.308C93.5896 20.164 93.7336 19.912 93.9496 19.552C94.1896 19.192 94.3816 18.808 94.5256 18.4C94.6936 17.992 94.7776 17.632 94.7776 17.32C94.8016 16.984 94.6456 16.78 94.3096 16.708C94.0936 16.684 93.8656 16.72 93.6256 16.816C93.3856 16.912 93.1456 17.044 92.9056 17.212C92.6656 17.38 92.4376 17.56 92.2216 17.752C92.0296 17.944 91.8616 18.112 91.7176 18.256C90.9976 18.976 90.3376 19.78 89.7376 20.668C89.1616 21.556 88.6096 22.444 88.0816 23.332L83.2936 31H79.9096C80.6536 29.704 81.3856 28.408 82.1056 27.112C82.8256 25.816 83.5576 24.508 84.3016 23.188C84.6376 22.564 84.9856 21.94 85.3456 21.316C85.7056 20.668 86.0656 20.032 86.4256 19.408C86.4976 19.264 86.5936 19.108 86.7136 18.94C86.8336 18.748 86.9416 18.556 87.0376 18.364C87.1336 18.172 87.2056 17.98 87.2536 17.788C87.3016 17.596 87.2896 17.416 87.2176 17.248C87.0976 16.984 86.9176 16.852 86.6776 16.852C86.4376 16.828 86.1616 16.9 85.8496 17.068C85.5616 17.212 85.2496 17.416 84.9136 17.68C84.6016 17.944 84.3016 18.208 84.0136 18.472C83.7256 18.736 83.4856 18.988 83.2936 19.228C83.1016 19.444 82.9696 19.588 82.8976 19.66C81.9856 20.764 81.1456 21.916 80.3776 23.116C79.6336 24.316 78.9016 25.54 78.1816 26.788C77.7496 27.484 77.3296 28.192 76.9216 28.912C76.5136 29.608 76.1056 30.304 75.6976 31H71.9536C73.2976 28.816 74.5696 26.632 75.7696 24.448C76.9696 22.264 78.1936 20.044 79.4416 17.788ZM103.412 16.924C104.18 16.444 104.984 16.024 105.824 15.664C106.688 15.28 107.588 15.064 108.524 15.016C109.364 14.968 110.144 15.112 110.864 15.448C111.608 15.784 112.148 16.312 112.484 17.032C112.652 17.488 112.736 18.016 112.736 18.616C112.736 19.216 112.664 19.78 112.52 20.308C112.4 20.812 112.268 21.292 112.124 21.748C111.836 22.444 111.464 23.176 111.008 23.944C110.576 24.688 110.096 25.408 109.568 26.104C109.088 26.68 108.56 27.244 107.984 27.796C107.408 28.348 106.784 28.864 106.112 29.344C105.464 29.8 104.768 30.196 104.024 30.532C103.28 30.844 102.5 31.048 101.684 31.144C100.892 31.24 100.088 31.156 99.2717 30.892C98.4797 30.628 97.8437 30.208 97.3637 29.632C96.8117 28.816 96.5357 27.976 96.5357 27.112C96.5357 26.8 96.5717 26.464 96.6437 26.104C96.6917 25.72 96.7637 25.36 96.8597 25.024C97.3877 23.44 98.2277 21.952 99.3797 20.56C100.556 19.144 101.888 17.932 103.376 16.924H103.412ZM100.064 27.292C100.016 27.508 99.9677 27.712 99.9197 27.904C99.8957 28.096 99.8837 28.216 99.8837 28.264C99.8837 28.576 99.9437 28.852 100.064 29.092C100.208 29.308 100.484 29.512 100.892 29.704C101.3 29.824 101.732 29.776 102.188 29.56C102.644 29.344 103.052 29.128 103.412 28.912C103.388 28.912 103.412 28.888 103.484 28.84C103.556 28.792 103.616 28.768 103.664 28.768C104.456 28.096 105.188 27.34 105.86 26.5C106.532 25.636 107.132 24.76 107.66 23.872C108.212 22.96 108.68 22.06 109.064 21.172C109.448 20.26 109.748 19.408 109.964 18.616C110.012 18.496 110.048 18.352 110.072 18.184C110.096 18.016 110.108 17.836 110.108 17.644C110.108 17.308 110.048 16.996 109.928 16.708C109.832 16.42 109.628 16.24 109.316 16.168C108.932 16.12 108.524 16.204 108.092 16.42C107.684 16.636 107.336 16.852 107.048 17.068C106.208 17.692 105.392 18.424 104.6 19.264C103.832 20.104 103.136 20.98 102.512 21.892C101.888 22.804 101.36 23.716 100.928 24.628C100.496 25.54 100.208 26.38 100.064 27.148V27.292ZM115.635 17.428C115.827 17.164 115.923 16.9 115.923 16.636C115.923 16.372 115.935 16.084 115.959 15.772C115.983 15.508 115.983 15.364 115.959 15.34C115.959 15.292 116.055 15.268 116.247 15.268C116.415 15.268 116.691 15.256 117.075 15.232C117.459 15.208 117.843 15.196 118.227 15.196C118.635 15.172 118.983 15.16 119.271 15.16C119.583 15.136 119.727 15.124 119.703 15.124C119.751 15.196 119.799 15.304 119.847 15.448C119.919 15.592 119.955 15.736 119.955 15.88C119.907 16.216 119.787 16.564 119.595 16.924C119.427 17.284 119.271 17.632 119.127 17.968C119.607 17.56 120.087 17.164 120.567 16.78C121.047 16.396 121.563 16.06 122.115 15.772C122.355 15.628 122.631 15.496 122.943 15.376C123.255 15.256 123.579 15.172 123.915 15.124C124.251 15.076 124.587 15.064 124.923 15.088C125.259 15.088 125.571 15.148 125.859 15.268C126.507 15.58 126.855 16.048 126.903 16.672C126.975 17.296 126.939 17.908 126.795 18.508C126.531 19.348 126.111 20.164 125.535 20.956C124.959 21.724 124.431 22.468 123.951 23.188C123.519 23.836 123.099 24.484 122.691 25.132C122.283 25.78 121.887 26.452 121.503 27.148C121.431 27.292 121.323 27.496 121.179 27.76C121.035 28 120.927 28.252 120.855 28.516C120.783 28.756 120.783 28.972 120.855 29.164C120.927 29.332 121.143 29.392 121.503 29.344C122.271 29.152 122.943 28.84 123.519 28.408C124.119 27.952 124.659 27.436 125.139 26.86C125.619 26.284 126.063 25.672 126.471 25.024C126.903 24.376 127.335 23.764 127.767 23.188C127.815 23.116 127.887 22.984 127.983 22.792C128.079 22.6 128.187 22.432 128.307 22.288C128.451 22.144 128.583 22.048 128.703 22C128.847 21.952 128.991 22.024 129.135 22.216C129.207 22.336 129.219 22.468 129.171 22.612C129.147 22.756 129.087 22.912 128.991 23.08C128.895 23.224 128.799 23.368 128.703 23.512C128.607 23.632 128.523 23.728 128.451 23.8C127.875 24.592 127.263 25.408 126.615 26.248C125.991 27.064 125.319 27.832 124.599 28.552C123.879 29.248 123.087 29.86 122.223 30.388C121.359 30.892 120.411 31.228 119.379 31.396C118.947 31.42 118.551 31.336 118.191 31.144C117.855 30.976 117.591 30.664 117.399 30.208C117.183 29.704 117.111 29.176 117.183 28.624C117.279 28.072 117.447 27.532 117.687 27.004C117.951 26.452 118.239 25.924 118.551 25.42C118.887 24.916 119.187 24.46 119.451 24.052C119.883 23.356 120.327 22.66 120.783 21.964C121.263 21.268 121.707 20.572 122.115 19.876C122.307 19.612 122.487 19.348 122.655 19.084C122.847 18.796 123.015 18.508 123.159 18.22C123.279 18.028 123.363 17.788 123.411 17.5C123.483 17.212 123.411 16.996 123.195 16.852C123.003 16.732 122.787 16.72 122.547 16.816C122.331 16.912 122.127 16.996 121.935 17.068C121.119 17.428 120.387 17.956 119.739 18.652C119.115 19.324 118.527 19.984 117.975 20.632C117.735 20.896 117.519 21.172 117.327 21.46C117.135 21.724 116.943 22 116.751 22.288C115.911 23.584 115.059 24.88 114.195 26.176C113.355 27.448 112.515 28.732 111.675 30.028C111.627 30.148 111.543 30.304 111.423 30.496C111.327 30.688 111.231 30.832 111.135 30.928C111.015 31.024 110.823 31.048 110.559 31C110.295 30.976 110.103 30.976 109.983 31C109.287 31 108.771 31 108.435 31C108.075 31 107.859 30.952 107.787 30.856C107.691 30.736 107.715 30.532 107.859 30.244C108.003 29.956 108.243 29.524 108.579 28.948C109.659 27.244 110.715 25.552 111.747 23.872C112.803 22.192 113.847 20.488 114.879 18.76C114.999 18.544 115.119 18.328 115.239 18.112C115.383 17.896 115.515 17.668 115.635 17.428ZM128.656 28.12C128.728 28.672 128.92 29.044 129.232 29.236C129.544 29.404 129.904 29.464 130.312 29.416C130.744 29.368 131.176 29.248 131.608 29.056C132.04 28.864 132.4 28.672 132.688 28.48C133.36 28.072 134.032 27.544 134.704 26.896C135.4 26.224 136.048 25.552 136.648 24.88C137.248 24.184 137.788 23.536 138.268 22.936C138.748 22.336 139.132 21.88 139.42 21.568C139.588 21.376 139.696 21.34 139.744 21.46C139.816 21.556 139.828 21.7 139.78 21.892C139.66 22.252 139.42 22.696 139.06 23.224C138.7 23.728 138.268 24.268 137.764 24.844C137.26 25.42 136.708 26.008 136.108 26.608C135.532 27.208 134.956 27.76 134.38 28.264C133.804 28.768 133.264 29.212 132.76 29.596C132.28 29.98 131.884 30.256 131.572 30.424C131.116 30.688 130.588 30.892 129.988 31.036C129.412 31.204 128.836 31.276 128.26 31.252C127.708 31.228 127.18 31.084 126.676 30.82C126.196 30.556 125.812 30.136 125.524 29.56C125.284 29.056 125.164 28.516 125.164 27.94C125.14 27.364 125.2 26.788 125.344 26.212C125.464 25.636 125.644 25.084 125.884 24.556C126.1 24.004 126.34 23.488 126.604 23.008C127.3 21.664 128.152 20.464 129.16 19.408C130.168 18.352 131.32 17.44 132.616 16.672C133.24 16.264 133.888 15.928 134.56 15.664C135.256 15.4 135.964 15.208 136.684 15.088C137.14 14.992 137.632 14.968 138.16 15.016C138.688 15.064 139.084 15.316 139.348 15.772C139.564 16.108 139.66 16.468 139.636 16.852C139.612 17.212 139.528 17.572 139.384 17.932C139.24 18.292 139.048 18.628 138.808 18.94C138.592 19.252 138.364 19.528 138.124 19.768C137.548 20.392 136.888 20.932 136.144 21.388C135.424 21.844 134.692 22.24 133.948 22.576C133.54 22.744 133.132 22.9 132.724 23.044C132.34 23.164 131.932 23.284 131.5 23.404C131.26 23.452 130.972 23.488 130.636 23.512C130.3 23.536 130.048 23.644 129.88 23.836C129.688 24.028 129.532 24.316 129.412 24.7C129.316 25.084 129.208 25.408 129.088 25.672C128.92 26.056 128.788 26.464 128.692 26.896C128.62 27.304 128.608 27.712 128.656 28.12ZM130.42 22.72C131.26 22.672 132.016 22.408 132.688 21.928C133.384 21.448 134.044 20.932 134.668 20.38C134.98 20.116 135.268 19.84 135.532 19.552C135.82 19.24 136.072 18.916 136.288 18.58C136.432 18.316 136.6 17.992 136.792 17.608C136.984 17.2 137.068 16.84 137.044 16.528C137.02 16.264 136.936 16.108 136.792 16.06C136.648 16.012 136.468 16.036 136.252 16.132C136.036 16.204 135.796 16.336 135.532 16.528C135.292 16.696 135.064 16.876 134.848 17.068C134.632 17.26 134.44 17.452 134.272 17.644C134.104 17.812 133.996 17.92 133.948 17.968C133.252 18.688 132.616 19.456 132.04 20.272C131.488 21.064 130.948 21.88 130.42 22.72ZM142.648 28.732C142.288 29.068 141.892 29.416 141.46 29.776C141.052 30.112 140.62 30.412 140.164 30.676C139.708 30.94 139.228 31.144 138.724 31.288C138.22 31.432 137.704 31.444 137.176 31.324C136.672 31.204 136.3 30.988 136.06 30.676C135.82 30.34 135.664 29.968 135.592 29.56C135.52 29.128 135.52 28.684 135.592 28.228C135.664 27.772 135.772 27.352 135.916 26.968C136.276 26.104 136.696 25.276 137.176 24.484C137.632 23.692 138.1 22.912 138.58 22.144C139.084 21.352 139.576 20.572 140.056 19.804C140.56 19.012 141.016 18.208 141.424 17.392C141.496 17.248 141.556 17.092 141.604 16.924C141.676 16.732 141.736 16.54 141.784 16.348C141.856 16.156 141.94 15.976 142.036 15.808C142.132 15.64 142.264 15.52 142.432 15.448C142.888 15.448 143.356 15.412 143.836 15.34C144.34 15.268 144.82 15.256 145.276 15.304C145.516 15.352 145.648 15.472 145.672 15.664C145.72 15.832 145.708 16.024 145.636 16.24C145.564 16.456 145.468 16.672 145.348 16.888C145.228 17.104 145.132 17.284 145.06 17.428C144.508 18.604 143.896 19.744 143.224 20.848C142.552 21.928 141.88 23.008 141.208 24.088C141.136 24.208 141.004 24.448 140.812 24.808C140.62 25.144 140.416 25.528 140.2 25.96C140.008 26.392 139.816 26.836 139.624 27.292C139.432 27.748 139.288 28.156 139.192 28.516C139.12 28.876 139.12 29.152 139.192 29.344C139.264 29.512 139.456 29.536 139.768 29.416C140.992 28.96 142.048 28.264 142.936 27.328C143.848 26.392 144.676 25.348 145.42 24.196C146.164 23.044 146.848 21.844 147.472 20.596C148.096 19.324 148.744 18.148 149.416 17.068C149.512 16.876 149.572 16.636 149.596 16.348C149.644 16.06 149.668 15.82 149.668 15.628C149.788 15.46 149.932 15.364 150.1 15.34C150.652 15.292 151.216 15.244 151.792 15.196C152.368 15.148 152.956 15.16 153.556 15.232C153.604 15.448 153.604 15.724 153.556 16.06C153.532 16.372 153.46 16.66 153.34 16.924C153.076 17.548 152.74 18.148 152.332 18.724C151.948 19.3 151.6 19.864 151.288 20.416C150.664 21.568 150.028 22.696 149.38 23.8C148.756 24.88 148.096 25.96 147.4 27.04C146.776 28 146.176 29.008 145.6 30.064C145.048 31.12 144.46 32.152 143.836 33.16C143.236 34.192 142.564 35.164 141.82 36.076C141.076 37.012 140.212 37.828 139.228 38.524C138.316 39.196 137.344 39.772 136.312 40.252C135.28 40.732 134.212 41.044 133.108 41.188C132.652 41.26 132.124 41.32 131.524 41.368C130.9 41.416 130.3 41.38 129.724 41.26C129.124 41.164 128.584 40.972 128.104 40.684C127.624 40.396 127.276 39.964 127.06 39.388C126.94 38.908 126.964 38.428 127.132 37.948C127.276 37.468 127.564 37.096 127.996 36.832C128.404 36.592 128.86 36.544 129.364 36.688C129.844 36.856 130.144 37.204 130.264 37.732C130.312 37.972 130.288 38.2 130.192 38.416C130.072 38.656 129.964 38.884 129.868 39.1C129.772 39.316 129.736 39.52 129.76 39.712C129.76 39.928 129.904 40.132 130.192 40.324C130.408 40.492 130.66 40.6 130.948 40.648C131.236 40.696 131.536 40.708 131.848 40.684C132.136 40.66 132.424 40.6 132.712 40.504C133 40.432 133.252 40.348 133.468 40.252C134.596 39.652 135.616 38.92 136.528 38.056C137.416 37.192 138.22 36.244 138.94 35.212C139.684 34.18 140.356 33.112 140.956 32.008C141.556 30.904 142.12 29.812 142.648 28.732ZM171.298 16.168C170.938 17.128 170.53 18.004 170.074 18.796C169.642 19.564 169.186 20.32 168.706 21.064C168.514 21.376 168.31 21.688 168.094 22C167.902 22.312 167.71 22.636 167.518 22.972C167.182 23.572 166.822 24.172 166.438 24.772C166.054 25.372 165.694 25.96 165.358 26.536C165.238 26.704 165.106 26.908 164.962 27.148C164.842 27.388 164.734 27.64 164.638 27.904C164.542 28.168 164.482 28.432 164.458 28.696C164.458 28.96 164.53 29.212 164.674 29.452C164.818 29.644 164.962 29.752 165.106 29.776C165.394 29.872 165.742 29.812 166.15 29.596C166.582 29.38 167.026 29.068 167.482 28.66C167.938 28.252 168.394 27.784 168.85 27.256C169.33 26.728 169.774 26.2 170.182 25.672C170.59 25.144 170.938 24.64 171.226 24.16C171.538 23.68 171.766 23.284 171.91 22.972H171.874L172.018 22.72C172.138 22.552 172.258 22.384 172.378 22.216C172.498 22.048 172.582 22.072 172.63 22.288C172.654 22.336 172.654 22.42 172.63 22.54C172.63 22.66 172.594 22.792 172.522 22.936V22.9C172.33 23.164 172.15 23.464 171.982 23.8C171.814 24.112 171.646 24.412 171.478 24.7C170.998 25.564 170.482 26.404 169.93 27.22C169.378 28.036 168.766 28.756 168.094 29.38C167.422 30.004 166.69 30.508 165.898 30.892C165.106 31.276 164.23 31.468 163.27 31.468C162.934 31.468 162.61 31.396 162.298 31.252C161.986 31.132 161.734 30.88 161.542 30.496C161.302 30.112 161.182 29.656 161.182 29.128C161.182 28.576 161.29 28.024 161.506 27.472C161.698 26.896 161.89 26.392 162.082 25.96C162.49 25.12 162.91 24.328 163.342 23.584C163.798 22.84 164.266 22.12 164.746 21.424C165.082 20.872 165.418 20.308 165.754 19.732C166.09 19.156 166.426 18.58 166.762 18.004C166.93 17.716 167.038 17.464 167.086 17.248C167.158 17.008 167.23 16.768 167.302 16.528C167.302 16.48 167.302 16.432 167.302 16.384C167.326 16.336 167.338 16.288 167.338 16.24C167.386 16.12 167.422 15.988 167.446 15.844C167.494 15.7 167.554 15.592 167.626 15.52C167.89 15.4 168.238 15.328 168.67 15.304C169.102 15.28 169.462 15.268 169.75 15.268C169.966 15.268 170.206 15.28 170.47 15.304C170.758 15.304 171.022 15.28 171.262 15.232C171.262 15.28 171.262 15.304 171.262 15.304C171.262 15.304 171.274 15.328 171.298 15.376C171.322 15.496 171.334 15.628 171.334 15.772C171.358 15.892 171.346 16.024 171.298 16.168ZM170.794 10.336C170.794 10.048 170.854 9.748 170.974 9.436C171.118 9.124 171.298 8.848 171.514 8.608C171.73 8.344 171.97 8.14 172.234 7.996C172.522 7.828 172.81 7.732 173.098 7.708C173.41 7.684 173.662 7.732 173.854 7.852C174.07 7.948 174.226 8.104 174.322 8.32C174.418 8.512 174.466 8.74 174.466 9.004C174.466 9.244 174.418 9.484 174.322 9.724C174.13 10.18 173.794 10.6 173.314 10.984C172.834 11.344 172.366 11.524 171.91 11.524C171.646 11.524 171.406 11.428 171.19 11.236C170.998 11.044 170.866 10.744 170.794 10.336ZM174.487 17.428C174.679 17.164 174.775 16.9 174.775 16.636C174.775 16.372 174.787 16.084 174.811 15.772C174.835 15.508 174.835 15.364 174.811 15.34C174.811 15.292 174.907 15.268 175.099 15.268C175.267 15.268 175.543 15.256 175.927 15.232C176.311 15.208 176.695 15.196 177.079 15.196C177.487 15.172 177.835 15.16 178.123 15.16C178.435 15.136 178.579 15.124 178.555 15.124C178.603 15.196 178.651 15.304 178.699 15.448C178.771 15.592 178.807 15.736 178.807 15.88C178.759 16.216 178.639 16.564 178.447 16.924C178.279 17.284 178.123 17.632 177.979 17.968C178.459 17.56 178.939 17.164 179.419 16.78C179.899 16.396 180.415 16.06 180.967 15.772C181.207 15.628 181.483 15.496 181.795 15.376C182.107 15.256 182.431 15.172 182.767 15.124C183.103 15.076 183.439 15.064 183.775 15.088C184.111 15.088 184.423 15.148 184.711 15.268C185.359 15.58 185.707 16.048 185.755 16.672C185.827 17.296 185.791 17.908 185.647 18.508C185.383 19.348 184.963 20.164 184.387 20.956C183.811 21.724 183.283 22.468 182.803 23.188C182.371 23.836 181.951 24.484 181.543 25.132C181.135 25.78 180.739 26.452 180.355 27.148C180.283 27.292 180.175 27.496 180.031 27.76C179.887 28 179.779 28.252 179.707 28.516C179.635 28.756 179.635 28.972 179.707 29.164C179.779 29.332 179.995 29.392 180.355 29.344C181.123 29.152 181.795 28.84 182.371 28.408C182.971 27.952 183.511 27.436 183.991 26.86C184.471 26.284 184.915 25.672 185.323 25.024C185.755 24.376 186.187 23.764 186.619 23.188C186.667 23.116 186.739 22.984 186.835 22.792C186.931 22.6 187.039 22.432 187.159 22.288C187.303 22.144 187.435 22.048 187.555 22C187.699 21.952 187.843 22.024 187.987 22.216C188.059 22.336 188.071 22.468 188.023 22.612C187.999 22.756 187.939 22.912 187.843 23.08C187.747 23.224 187.651 23.368 187.555 23.512C187.459 23.632 187.375 23.728 187.303 23.8C186.727 24.592 186.115 25.408 185.467 26.248C184.843 27.064 184.171 27.832 183.451 28.552C182.731 29.248 181.939 29.86 181.075 30.388C180.211 30.892 179.263 31.228 178.231 31.396C177.799 31.42 177.403 31.336 177.043 31.144C176.707 30.976 176.443 30.664 176.251 30.208C176.035 29.704 175.963 29.176 176.035 28.624C176.131 28.072 176.299 27.532 176.539 27.004C176.803 26.452 177.091 25.924 177.403 25.42C177.739 24.916 178.039 24.46 178.303 24.052C178.735 23.356 179.179 22.66 179.635 21.964C180.115 21.268 180.559 20.572 180.967 19.876C181.159 19.612 181.339 19.348 181.507 19.084C181.699 18.796 181.867 18.508 182.011 18.22C182.131 18.028 182.215 17.788 182.263 17.5C182.335 17.212 182.263 16.996 182.047 16.852C181.855 16.732 181.639 16.72 181.399 16.816C181.183 16.912 180.979 16.996 180.787 17.068C179.971 17.428 179.239 17.956 178.591 18.652C177.967 19.324 177.379 19.984 176.827 20.632C176.587 20.896 176.371 21.172 176.179 21.46C175.987 21.724 175.795 22 175.603 22.288C174.763 23.584 173.911 24.88 173.047 26.176C172.207 27.448 171.367 28.732 170.527 30.028C170.479 30.148 170.395 30.304 170.275 30.496C170.179 30.688 170.083 30.832 169.987 30.928C169.867 31.024 169.675 31.048 169.411 31C169.147 30.976 168.955 30.976 168.835 31C168.139 31 167.623 31 167.287 31C166.927 31 166.711 30.952 166.639 30.856C166.543 30.736 166.567 30.532 166.711 30.244C166.855 29.956 167.095 29.524 167.431 28.948C168.511 27.244 169.567 25.552 170.599 23.872C171.655 22.192 172.699 20.488 173.731 18.76C173.851 18.544 173.971 18.328 174.091 18.112C174.235 17.896 174.367 17.668 174.487 17.428ZM201.756 18.436C201.924 18.124 202.068 17.764 202.188 17.356C202.308 16.924 202.404 16.528 202.476 16.168C202.524 15.976 202.584 15.844 202.656 15.772C202.752 15.7 202.896 15.604 203.088 15.484C203.208 15.412 203.46 15.364 203.844 15.34C204.228 15.316 204.636 15.304 205.068 15.304C205.524 15.304 205.944 15.316 206.328 15.34C206.736 15.34 207.012 15.34 207.156 15.34C206.316 16.684 205.464 18.208 204.6 19.912C203.736 21.616 202.824 23.368 201.864 25.168C200.928 26.968 199.92 28.756 198.84 30.532C197.76 32.308 196.596 33.928 195.348 35.392C194.076 36.856 192.696 38.092 191.208 39.1C189.696 40.132 188.04 40.792 186.24 41.08C185.736 41.152 185.148 41.2 184.476 41.224C183.804 41.272 183.144 41.236 182.496 41.116C181.848 41.02 181.26 40.828 180.732 40.54C180.18 40.252 179.796 39.82 179.58 39.244C179.34 38.716 179.28 38.176 179.4 37.624C179.52 37.096 179.832 36.676 180.336 36.364C180.552 36.244 180.804 36.172 181.092 36.148C181.356 36.124 181.608 36.148 181.848 36.22C182.088 36.292 182.304 36.412 182.496 36.58C182.664 36.772 182.772 37.012 182.82 37.3C182.892 37.732 182.784 38.14 182.496 38.524C182.352 38.716 182.232 38.884 182.136 39.028C182.04 39.172 182.064 39.364 182.208 39.604C182.472 40.036 182.88 40.276 183.432 40.324C183.984 40.396 184.464 40.396 184.872 40.324C186.168 40.132 187.32 39.64 188.328 38.848C189.336 38.056 190.212 37.156 190.956 36.148C191.988 34.804 192.972 33.4 193.908 31.936C194.82 30.472 195.708 28.984 196.572 27.472C197.436 25.96 198.288 24.448 199.128 22.936C199.968 21.4 200.844 19.9 201.756 18.436ZM204.96 10.588C204.96 10.276 205.02 9.964 205.14 9.652C205.284 9.34 205.464 9.052 205.68 8.788C205.92 8.524 206.184 8.308 206.472 8.14C206.76 7.972 207.06 7.876 207.372 7.852C207.684 7.828 207.948 7.876 208.164 7.996C208.404 8.116 208.572 8.284 208.668 8.5C208.788 8.716 208.848 8.968 208.848 9.256C208.848 9.52 208.8 9.784 208.704 10.048C208.56 10.408 208.296 10.756 207.912 11.092C207.552 11.428 207.168 11.656 206.76 11.776C206.352 11.896 205.968 11.884 205.608 11.74C205.272 11.596 205.056 11.212 204.96 10.588ZM211.341 26.428C210.693 27.148 210.021 27.892 209.325 28.66C208.653 29.428 207.897 30.052 207.057 30.532C206.721 30.724 206.373 30.88 206.013 31C205.653 31.096 205.293 31.132 204.933 31.108C204.597 31.084 204.285 30.988 203.997 30.82C203.685 30.628 203.433 30.328 203.241 29.92C203.073 29.536 203.001 29.128 203.025 28.696C203.025 28.264 203.085 27.832 203.205 27.4C203.301 26.968 203.445 26.548 203.637 26.14C203.829 25.732 204.021 25.348 204.213 24.988C204.765 24.076 205.317 23.152 205.869 22.216C206.445 21.256 207.009 20.308 207.561 19.372C207.777 19.012 207.969 18.652 208.137 18.292C208.329 17.908 208.509 17.5 208.677 17.068C208.701 16.972 208.725 16.852 208.749 16.708C208.773 16.54 208.797 16.384 208.821 16.24C208.845 16.072 208.881 15.916 208.929 15.772C208.977 15.628 209.049 15.52 209.145 15.448C209.217 15.448 209.385 15.448 209.649 15.448C209.913 15.424 210.213 15.412 210.549 15.412C210.909 15.388 211.257 15.376 211.593 15.376C211.953 15.376 212.241 15.376 212.457 15.376C212.553 15.424 212.601 15.508 212.601 15.628C212.601 15.748 212.601 15.844 212.601 15.916C212.625 16.348 212.541 16.804 212.349 17.284C212.181 17.74 211.989 18.148 211.773 18.508C211.269 19.516 210.729 20.488 210.153 21.424C209.625 22.384 209.073 23.32 208.497 24.232C207.921 25.144 207.357 26.068 206.805 27.004C206.661 27.268 206.505 27.616 206.337 28.048C206.193 28.456 206.253 28.792 206.517 29.056C206.685 29.224 206.877 29.296 207.093 29.272C207.333 29.224 207.561 29.14 207.777 29.02C208.017 28.9 208.221 28.756 208.389 28.588C208.581 28.42 208.737 28.276 208.857 28.156C209.625 27.46 210.321 26.668 210.945 25.78C211.569 24.892 212.169 24.028 212.745 23.188C213.369 22.276 213.945 21.34 214.473 20.38C215.025 19.42 215.505 18.436 215.913 17.428C216.033 17.092 216.177 16.732 216.345 16.348C216.537 15.964 216.693 15.676 216.813 15.484C217.197 15.46 217.677 15.424 218.253 15.376C218.853 15.328 219.357 15.304 219.765 15.304H220.485C220.461 15.472 220.425 15.64 220.377 15.808C220.329 15.952 220.281 16.12 220.233 16.312C220.209 16.48 220.161 16.624 220.089 16.744C219.657 17.704 219.153 18.64 218.577 19.552C218.001 20.44 217.437 21.34 216.885 22.252C216.333 23.14 215.817 24.052 215.337 24.988C214.857 25.924 214.485 26.908 214.221 27.94C214.149 28.54 214.257 28.888 214.545 28.984C214.857 29.056 215.217 28.924 215.625 28.588C216.705 27.676 217.677 26.644 218.541 25.492C219.405 24.34 220.221 23.164 220.989 21.964C221.133 21.844 221.289 21.808 221.457 21.856C221.625 21.88 221.685 22.024 221.637 22.288C220.821 23.608 219.933 24.892 218.973 26.14C218.037 27.364 216.993 28.528 215.841 29.632C215.313 30.064 214.749 30.424 214.149 30.712C213.573 30.976 212.973 31.036 212.349 30.892C211.845 30.772 211.485 30.544 211.269 30.208C211.077 29.848 210.969 29.452 210.945 29.02C210.945 28.564 210.993 28.108 211.089 27.652C211.185 27.172 211.269 26.764 211.341 26.428ZM229.512 15.268C229.488 15.46 229.428 15.652 229.332 15.844C229.236 16.012 229.128 16.192 229.008 16.384L228.648 16.924C228.456 17.476 228.288 18.088 228.144 18.76C228.024 19.408 227.904 20.032 227.784 20.632V20.596C227.568 21.604 227.34 22.6 227.1 23.584C226.86 24.568 226.536 25.504 226.128 26.392C225.72 27.28 225.192 28.096 224.544 28.84C223.92 29.56 223.104 30.148 222.096 30.604C221.688 30.796 221.256 30.94 220.8 31.036C220.344 31.156 219.876 31.216 219.396 31.216C218.772 31.216 218.196 31.108 217.668 30.892C217.308 30.724 217.02 30.484 216.804 30.172C216.564 29.86 216.444 29.536 216.444 29.2C216.444 28.984 216.492 28.768 216.588 28.552C216.684 28.336 216.84 28.132 217.056 27.94C217.2 27.82 217.428 27.7 217.74 27.58C218.028 27.46 218.28 27.46 218.496 27.58C218.64 27.676 218.712 27.82 218.712 28.012C218.712 28.18 218.688 28.36 218.64 28.552C218.616 28.624 218.604 28.732 218.604 28.876C218.604 29.14 218.676 29.416 218.82 29.704C218.988 29.992 219.204 30.112 219.468 30.064C219.66 30.064 219.864 29.992 220.08 29.848C220.296 29.704 220.5 29.536 220.692 29.344C220.908 29.152 221.1 28.96 221.268 28.768C221.436 28.576 221.568 28.42 221.664 28.3C222.504 26.788 223.164 25.18 223.644 23.476C224.148 21.772 224.568 20.092 224.904 18.436C224.496 18.892 224.112 19.348 223.752 19.804C223.392 20.236 223.02 20.692 222.636 21.172C221.34 22.78 220.02 24.376 218.676 25.96C217.332 27.52 215.868 28.972 214.284 30.316C214.092 30.46 213.9 30.604 213.708 30.748C213.492 30.868 213.264 30.952 213.024 31C212.76 31.072 212.568 31.036 212.448 30.892C212.304 30.724 212.268 30.484 212.34 30.172C212.412 29.932 212.544 29.752 212.736 29.632C212.928 29.488 213.132 29.368 213.348 29.272L213.744 29.02C214.656 28.444 215.544 27.772 216.408 27.004C217.248 26.236 218.052 25.42 218.82 24.556C219.588 23.692 220.332 22.816 221.052 21.928C221.772 21.016 222.456 20.128 223.104 19.264C223.512 18.712 223.908 18.184 224.292 17.68C224.7 17.152 225.108 16.648 225.516 16.168C225.708 15.904 225.924 15.7 226.164 15.556C226.404 15.412 226.656 15.316 226.92 15.268C227.184 15.196 227.46 15.16 227.748 15.16C228.06 15.16 228.372 15.172 228.684 15.196V15.16C228.804 15.16 228.924 15.172 229.044 15.196C229.188 15.196 229.32 15.196 229.44 15.196L229.512 15.268ZM233.119 11.524H236.179L237.727 9.292L238.123 8.572V8.608C238.435 8.032 238.759 7.432 239.095 6.808C239.431 6.16 239.671 5.56 239.815 5.008C239.815 4.96 239.827 4.924 239.851 4.9C239.875 4.852 239.887 4.804 239.887 4.756C239.935 4.612 239.995 4.456 240.067 4.288C240.139 4.12 240.223 3.988 240.319 3.892C240.487 3.796 240.775 3.724 241.183 3.676C241.591 3.628 242.023 3.604 242.479 3.604C242.983 3.604 243.439 3.628 243.847 3.676C244.255 3.724 244.435 3.796 244.387 3.892C244.315 4.18 244.195 4.54 244.027 4.972C243.859 5.404 243.607 5.92 243.271 6.52C242.959 7.12 242.539 7.84 242.011 8.68C241.507 9.496 240.883 10.444 240.139 11.524H242.515V12.784H239.455C238.687 13.936 237.871 15.184 237.007 16.528C236.167 17.848 235.351 19.192 234.559 20.56C233.791 21.904 233.083 23.212 232.435 24.484C231.811 25.756 231.343 26.92 231.031 27.976C230.863 28.6 230.971 29.032 231.355 29.272C231.763 29.488 232.243 29.5 232.795 29.308C233.131 29.188 233.527 28.924 233.983 28.516C234.439 28.108 234.931 27.616 235.459 27.04C235.987 26.464 236.515 25.852 237.043 25.204C237.595 24.532 238.111 23.884 238.591 23.26C239.095 22.636 239.527 22.072 239.887 21.568C240.271 21.04 240.559 20.644 240.751 20.38C240.799 20.332 240.835 20.284 240.859 20.236C240.883 20.188 240.907 20.152 240.931 20.128C241.027 20.128 241.099 20.188 241.147 20.308C241.051 20.62 240.823 21.076 240.463 21.676C240.127 22.252 239.695 22.9 239.167 23.62C238.639 24.34 238.039 25.096 237.367 25.888C236.695 26.68 235.975 27.424 235.207 28.12C234.439 28.816 233.647 29.44 232.831 29.992C232.015 30.544 231.199 30.952 230.383 31.216C229.591 31.336 228.883 31.216 228.259 30.856C227.611 30.496 227.239 29.896 227.143 29.056C227.119 28.456 227.203 27.832 227.395 27.184C227.563 26.512 227.899 25.696 228.403 24.736C228.907 23.752 229.579 22.552 230.419 21.136C231.283 19.696 232.363 17.92 233.659 15.808L235.531 12.784H233.119V11.524ZM58.348 51.34H61.948C60.94 53.116 59.956 54.892 58.996 56.668C58.036 58.444 57.016 60.172 55.936 61.852C55.84 61.996 55.684 62.284 55.468 62.716C55.276 63.148 55.12 63.58 55 64.012C54.904 64.444 54.892 64.804 54.964 65.092C55.06 65.38 55.348 65.452 55.828 65.308C56.5 64.924 57.088 64.456 57.592 63.904C58.12 63.352 58.6 62.764 59.032 62.14C59.488 61.492 59.932 60.856 60.364 60.232C60.796 59.584 61.264 58.984 61.768 58.432C61.96 58.24 62.116 58.168 62.236 58.216C62.356 58.264 62.44 58.312 62.488 58.36C62.488 58.384 62.428 58.492 62.308 58.684C61.66 59.452 61.048 60.28 60.472 61.168C59.896 62.056 59.272 62.908 58.6 63.724C57.952 64.54 57.232 65.26 56.44 65.884C55.648 66.508 54.724 66.94 53.668 67.18C53.116 67.204 52.708 67.084 52.444 66.82C52.18 66.556 52 66.22 51.904 65.812C51.808 65.404 51.76 64.972 51.76 64.516C51.784 64.06 51.82 63.64 51.868 63.256C51.604 63.544 51.256 63.904 50.824 64.336C50.416 64.744 49.96 65.164 49.456 65.596C48.952 66.028 48.424 66.424 47.872 66.784C47.344 67.12 46.816 67.336 46.288 67.432C45.784 67.552 45.304 67.504 44.848 67.288C44.416 67.096 44.056 66.664 43.768 65.992C43.48 65.32 43.348 64.648 43.372 63.976C43.396 63.28 43.516 62.596 43.732 61.924C43.948 61.252 44.224 60.604 44.56 59.98C44.92 59.356 45.28 58.768 45.64 58.216C46.432 57.016 47.344 55.924 48.376 54.94C49.432 53.956 50.584 53.116 51.832 52.42C52.264 52.18 52.756 51.952 53.308 51.736C53.884 51.496 54.436 51.352 54.964 51.304C55.516 51.256 56.02 51.34 56.476 51.556C56.932 51.772 57.28 52.204 57.52 52.852C57.664 52.588 57.808 52.336 57.952 52.096C58.096 51.856 58.228 51.604 58.348 51.34ZM53.596 59.548C53.668 59.404 53.836 59.128 54.1 58.72C54.388 58.312 54.688 57.844 55 57.316C55.312 56.788 55.6 56.224 55.864 55.624C56.152 55.024 56.344 54.472 56.44 53.968C56.56 53.464 56.56 53.044 56.44 52.708C56.32 52.372 55.996 52.18 55.468 52.132C55.084 52.204 54.7 52.36 54.316 52.6C53.956 52.816 53.596 53.092 53.236 53.428C52.876 53.74 52.54 54.076 52.228 54.436C51.916 54.772 51.616 55.096 51.328 55.408C50.752 56.176 50.188 56.968 49.636 57.784C49.084 58.6 48.568 59.428 48.088 60.268C47.944 60.532 47.764 60.868 47.548 61.276C47.332 61.66 47.14 62.068 46.972 62.5C46.804 62.932 46.684 63.364 46.612 63.796C46.564 64.204 46.636 64.564 46.828 64.876C46.996 65.188 47.212 65.368 47.476 65.416C47.764 65.464 48.052 65.44 48.34 65.344C48.628 65.248 48.904 65.116 49.168 64.948C49.456 64.756 49.684 64.576 49.852 64.408C50.596 63.712 51.28 62.956 51.904 62.14C52.528 61.324 53.092 60.46 53.596 59.548ZM79.6879 50.908H83.0359L83.5039 50.08C84.2719 48.856 85.0999 47.68 85.9879 46.552C86.8999 45.424 87.9199 44.404 89.0479 43.492C89.5999 43.06 90.1639 42.664 90.7399 42.304C91.3159 41.92 91.8919 41.56 92.4679 41.224C93.0439 40.912 93.6559 40.636 94.3039 40.396C94.9759 40.132 95.6479 40.036 96.3199 40.108C96.7999 40.204 97.1359 40.408 97.3279 40.72C97.5199 41.008 97.5559 41.368 97.4359 41.8C97.3159 42.424 97.0159 42.988 96.5359 43.492C96.0799 43.972 95.5399 44.248 94.9159 44.32C94.9399 44.152 94.9639 43.96 94.9879 43.744C95.0119 43.528 95.0119 43.312 94.9879 43.096C94.9879 42.88 94.9519 42.676 94.8799 42.484C94.8319 42.268 94.7359 42.088 94.5919 41.944C94.3519 41.752 94.0879 41.68 93.7999 41.728C93.5119 41.776 93.2239 41.896 92.9359 42.088C92.6479 42.256 92.3839 42.46 92.1439 42.7C91.9039 42.94 91.7119 43.144 91.5679 43.312C90.5599 44.44 89.6599 45.664 88.8679 46.984C88.0759 48.28 87.3079 49.588 86.5639 50.908H88.8679V52.096H85.9519C85.6879 52.648 85.3279 53.344 84.8719 54.184C84.4159 55 83.8999 55.9 83.3239 56.884C82.7479 57.844 82.1359 58.864 81.4879 59.944C80.8639 61 80.2159 62.056 79.5439 63.112C78.8959 64.168 78.2599 65.188 77.6359 66.172C77.0119 67.156 76.4359 68.032 75.9079 68.8C75.0199 70 74.1199 71.14 73.2079 72.22C72.2719 73.3 71.1919 74.236 69.9679 75.028C69.4159 75.388 68.8279 75.736 68.2039 76.072C67.5559 76.408 66.8959 76.684 66.2239 76.9C65.5279 77.14 64.8319 77.296 64.1359 77.368C63.4399 77.44 62.7559 77.392 62.0839 77.224C61.5799 77.104 61.1359 76.9 60.7519 76.612C60.3439 76.324 60.0559 75.916 59.8879 75.388C59.7199 74.98 59.6959 74.548 59.8159 74.092C59.9359 73.66 60.1999 73.324 60.6079 73.084C60.8959 72.916 61.1839 72.82 61.4719 72.796C61.7599 72.796 62.0119 72.856 62.2279 72.976C62.4199 73.096 62.5639 73.288 62.6599 73.552C62.7319 73.816 62.7079 74.128 62.5879 74.488C62.4679 74.752 62.3719 74.992 62.2999 75.208C62.2039 75.448 62.2399 75.7 62.4079 75.964C62.5519 76.228 62.7679 76.396 63.0559 76.468C63.3199 76.54 63.5839 76.564 63.8479 76.54C64.5199 76.54 65.1559 76.396 65.7559 76.108C66.3559 75.844 66.9199 75.484 67.4479 75.028C67.9759 74.596 68.4679 74.116 68.9239 73.588C69.3799 73.06 69.7879 72.544 70.1479 72.04C71.2279 70.576 72.2119 69.064 73.0999 67.504C73.9639 65.944 74.8879 64.396 75.8719 62.86L82.3159 52.096H79.6879V50.908ZM85.8883 64.12C85.9603 64.672 86.1523 65.044 86.4643 65.236C86.7763 65.404 87.1363 65.464 87.5443 65.416C87.9763 65.368 88.4083 65.248 88.8403 65.056C89.2723 64.864 89.6323 64.672 89.9203 64.48C90.5923 64.072 91.2643 63.544 91.9363 62.896C92.6323 62.224 93.2803 61.552 93.8803 60.88C94.4803 60.184 95.0203 59.536 95.5003 58.936C95.9803 58.336 96.3643 57.88 96.6523 57.568C96.8203 57.376 96.9283 57.34 96.9763 57.46C97.0483 57.556 97.0603 57.7 97.0123 57.892C96.8923 58.252 96.6523 58.696 96.2923 59.224C95.9323 59.728 95.5003 60.268 94.9963 60.844C94.4923 61.42 93.9403 62.008 93.3403 62.608C92.7643 63.208 92.1883 63.76 91.6123 64.264C91.0363 64.768 90.4963 65.212 89.9923 65.596C89.5123 65.98 89.1163 66.256 88.8043 66.424C88.3483 66.688 87.8203 66.892 87.2203 67.036C86.6443 67.204 86.0683 67.276 85.4923 67.252C84.9403 67.228 84.4123 67.084 83.9083 66.82C83.4283 66.556 83.0443 66.136 82.7563 65.56C82.5163 65.056 82.3963 64.516 82.3963 63.94C82.3723 63.364 82.4323 62.788 82.5763 62.212C82.6963 61.636 82.8763 61.084 83.1163 60.556C83.3323 60.004 83.5723 59.488 83.8363 59.008C84.5323 57.664 85.3843 56.464 86.3923 55.408C87.4003 54.352 88.5523 53.44 89.8483 52.672C90.4723 52.264 91.1203 51.928 91.7923 51.664C92.4883 51.4 93.1963 51.208 93.9163 51.088C94.3723 50.992 94.8643 50.968 95.3923 51.016C95.9203 51.064 96.3163 51.316 96.5803 51.772C96.7963 52.108 96.8923 52.468 96.8683 52.852C96.8443 53.212 96.7603 53.572 96.6163 53.932C96.4723 54.292 96.2803 54.628 96.0403 54.94C95.8243 55.252 95.5963 55.528 95.3563 55.768C94.7803 56.392 94.1203 56.932 93.3763 57.388C92.6563 57.844 91.9243 58.24 91.1803 58.576C90.7723 58.744 90.3643 58.9 89.9563 59.044C89.5723 59.164 89.1643 59.284 88.7323 59.404C88.4923 59.452 88.2043 59.488 87.8683 59.512C87.5323 59.536 87.2803 59.644 87.1123 59.836C86.9203 60.028 86.7643 60.316 86.6443 60.7C86.5483 61.084 86.4403 61.408 86.3203 61.672C86.1523 62.056 86.0203 62.464 85.9243 62.896C85.8523 63.304 85.8403 63.712 85.8883 64.12ZM87.6523 58.72C88.4923 58.672 89.2483 58.408 89.9203 57.928C90.6163 57.448 91.2763 56.932 91.9003 56.38C92.2123 56.116 92.5003 55.84 92.7643 55.552C93.0523 55.24 93.3043 54.916 93.5203 54.58C93.6643 54.316 93.8323 53.992 94.0243 53.608C94.2163 53.2 94.3003 52.84 94.2763 52.528C94.2523 52.264 94.1683 52.108 94.0243 52.06C93.8803 52.012 93.7003 52.036 93.4843 52.132C93.2683 52.204 93.0283 52.336 92.7643 52.528C92.5243 52.696 92.2963 52.876 92.0803 53.068C91.8643 53.26 91.6723 53.452 91.5043 53.644C91.3363 53.812 91.2283 53.92 91.1803 53.968C90.4843 54.688 89.8483 55.456 89.2723 56.272C88.7203 57.064 88.1803 57.88 87.6523 58.72ZM100.888 63.04L98.5122 65.632C98.1522 66.016 97.7802 66.364 97.3962 66.676C97.0122 66.988 96.5682 67.192 96.0642 67.288C95.4402 67.432 94.9122 67.432 94.4802 67.288C94.0482 67.168 93.7122 66.94 93.4722 66.604C93.2082 66.268 93.0402 65.86 92.9682 65.38C92.8962 64.876 92.9202 64.348 93.0402 63.796C93.3042 62.836 93.6882 61.924 94.1922 61.06C94.6722 60.196 95.1762 59.344 95.7042 58.504C96.2562 57.664 96.7962 56.824 97.3242 55.984C97.8522 55.12 98.2962 54.22 98.6562 53.284C98.7282 53.068 98.8002 52.804 98.8722 52.492C98.9442 52.18 99.0762 51.94 99.2682 51.772C99.4602 51.628 99.7002 51.556 99.9882 51.556C100.276 51.532 100.516 51.496 100.708 51.448C100.948 51.4 101.2 51.352 101.464 51.304C101.752 51.256 102.016 51.244 102.256 51.268C102.568 51.268 102.76 51.352 102.832 51.52C102.928 51.688 102.952 51.892 102.904 52.132C102.88 52.348 102.82 52.588 102.724 52.852C102.628 53.092 102.544 53.308 102.472 53.5C102.088 54.46 101.632 55.372 101.104 56.236C100.576 57.1 100.024 57.964 99.4482 58.828C98.8962 59.692 98.3562 60.568 97.8282 61.456C97.3242 62.344 96.9042 63.268 96.5682 64.228C96.3762 64.66 96.4122 64.984 96.6762 65.2C96.9402 65.416 97.2882 65.392 97.7202 65.128C98.7042 64.24 99.6162 63.28 100.456 62.248C101.296 61.216 102.076 60.148 102.796 59.044C103.516 57.916 104.188 56.764 104.812 55.588C105.46 54.388 106.072 53.2 106.648 52.024C106.768 51.712 106.924 51.532 107.116 51.484C107.308 51.412 107.572 51.352 107.908 51.304C108.196 51.256 108.508 51.208 108.844 51.16C109.204 51.088 109.516 51.064 109.78 51.088C110.092 51.136 110.272 51.28 110.32 51.52C110.392 51.736 110.38 52.012 110.284 52.348C110.188 52.684 110.032 53.044 109.816 53.428C109.624 53.812 109.42 54.196 109.204 54.58C108.988 54.94 108.784 55.276 108.592 55.588C108.4 55.876 108.268 56.08 108.196 56.2C107.644 57.136 107.08 58.084 106.504 59.044C105.928 60.004 105.4 60.964 104.92 61.924C104.728 62.356 104.56 62.812 104.416 63.292C104.272 63.772 104.2 64.228 104.2 64.66C104.248 65.164 104.476 65.452 104.884 65.524C105.292 65.572 105.7 65.5 106.108 65.308C106.54 65.092 106.948 64.816 107.332 64.48C107.716 64.12 108.076 63.736 108.412 63.328C108.748 62.896 109.06 62.464 109.348 62.032C109.636 61.6 109.9 61.192 110.14 60.808C110.716 59.896 111.244 58.936 111.724 57.928C112.204 56.896 112.576 55.876 112.84 54.868C112.984 54.34 113.044 53.848 113.02 53.392C112.996 53.128 112.948 52.9 112.876 52.708C112.828 52.516 112.816 52.312 112.84 52.096C112.864 51.856 112.948 51.628 113.092 51.412C113.236 51.172 113.404 50.98 113.596 50.836C113.812 50.668 114.04 50.56 114.28 50.512C114.52 50.464 114.76 50.488 115 50.584C115.264 50.704 115.444 50.872 115.54 51.088C115.66 51.304 115.732 51.544 115.756 51.808C115.78 52.072 115.768 52.348 115.72 52.636C115.672 52.9 115.624 53.152 115.576 53.392C115.456 54.016 115.288 54.592 115.072 55.12C114.856 55.648 114.592 56.188 114.28 56.74C113.656 57.964 112.972 59.116 112.228 60.196C111.508 61.276 110.692 62.32 109.78 63.328C109.036 64.216 108.208 65.032 107.296 65.776C106.408 66.52 105.376 67.024 104.2 67.288C103.648 67.408 103.108 67.408 102.58 67.288C102.076 67.192 101.656 66.904 101.32 66.424C100.984 65.944 100.828 65.404 100.852 64.804C100.876 64.18 100.888 63.592 100.888 63.04ZM129.557 53.788C129.653 53.62 129.725 53.404 129.773 53.14C129.845 52.876 129.917 52.624 129.989 52.384C130.061 52.12 130.157 51.892 130.277 51.7C130.397 51.508 130.565 51.388 130.781 51.34H133.949C134.093 51.796 134.117 52.228 134.021 52.636C133.925 53.044 133.781 53.428 133.589 53.788C134.261 53.26 134.921 52.72 135.569 52.168C136.241 51.592 137.009 51.208 137.873 51.016C138.185 50.944 138.497 50.932 138.809 50.98C139.145 51.004 139.445 51.088 139.709 51.232C139.973 51.376 140.189 51.58 140.357 51.844C140.549 52.084 140.657 52.384 140.681 52.744C140.681 52.888 140.657 53.104 140.609 53.392C140.585 53.656 140.633 53.836 140.753 53.932C140.825 53.98 140.945 53.932 141.113 53.788C141.305 53.62 141.497 53.44 141.689 53.248C141.881 53.056 142.061 52.864 142.229 52.672C142.397 52.48 142.505 52.36 142.553 52.312C142.865 52.072 143.213 51.844 143.597 51.628C143.981 51.388 144.377 51.196 144.785 51.052C145.217 50.908 145.649 50.824 146.081 50.8C146.513 50.776 146.933 50.848 147.341 51.016C147.677 51.16 147.941 51.364 148.133 51.628C148.325 51.868 148.457 52.144 148.529 52.456C148.625 52.744 148.661 53.056 148.637 53.392C148.613 53.728 148.565 54.052 148.493 54.364C147.725 56.092 146.837 57.724 145.829 59.26C144.821 60.796 143.897 62.392 143.057 64.048C142.961 64.384 142.949 64.66 143.021 64.876C143.093 65.092 143.333 65.176 143.741 65.128C144.149 65.08 144.545 64.9 144.929 64.588C145.313 64.252 145.649 63.952 145.937 63.688C146.609 63.064 147.233 62.392 147.809 61.672C148.409 60.928 148.973 60.16 149.501 59.368C149.621 59.152 149.777 58.912 149.969 58.648C150.161 58.384 150.389 58.156 150.653 57.964C150.821 57.94 150.941 57.964 151.013 58.036C151.085 58.108 151.109 58.216 151.085 58.36C151.085 58.48 151.049 58.612 150.977 58.756C150.929 58.876 150.881 58.984 150.833 59.08C150.353 59.824 149.825 60.532 149.249 61.204C148.697 61.876 148.145 62.536 147.593 63.184C147.017 63.88 146.405 64.552 145.757 65.2C145.109 65.824 144.365 66.328 143.525 66.712C143.189 66.856 142.829 66.976 142.445 67.072C142.085 67.168 141.725 67.204 141.365 67.18C141.005 67.18 140.669 67.096 140.357 66.928C140.045 66.76 139.793 66.496 139.601 66.136C139.409 65.8 139.313 65.44 139.313 65.056C139.337 64.672 139.397 64.288 139.493 63.904C139.613 63.496 139.757 63.112 139.925 62.752C140.117 62.368 140.285 62.02 140.429 61.708C140.933 60.796 141.461 59.896 142.013 59.008C142.565 58.12 143.105 57.22 143.633 56.308C143.705 56.164 143.849 55.912 144.065 55.552C144.305 55.192 144.497 54.808 144.641 54.4C144.809 53.992 144.893 53.632 144.893 53.32C144.917 52.984 144.761 52.78 144.425 52.708C144.209 52.684 143.981 52.72 143.741 52.816C143.501 52.912 143.261 53.044 143.021 53.212C142.781 53.38 142.553 53.56 142.337 53.752C142.145 53.944 141.977 54.112 141.833 54.256C141.113 54.976 140.453 55.78 139.853 56.668C139.277 57.556 138.725 58.444 138.197 59.332L133.409 67H130.025C130.769 65.704 131.501 64.408 132.221 63.112C132.941 61.816 133.673 60.508 134.417 59.188C134.753 58.564 135.101 57.94 135.461 57.316C135.821 56.668 136.181 56.032 136.541 55.408C136.613 55.264 136.709 55.108 136.829 54.94C136.949 54.748 137.057 54.556 137.153 54.364C137.249 54.172 137.321 53.98 137.369 53.788C137.417 53.596 137.405 53.416 137.333 53.248C137.213 52.984 137.033 52.852 136.793 52.852C136.553 52.828 136.277 52.9 135.965 53.068C135.677 53.212 135.365 53.416 135.029 53.68C134.717 53.944 134.417 54.208 134.129 54.472C133.841 54.736 133.601 54.988 133.409 55.228C133.217 55.444 133.085 55.588 133.013 55.66C132.101 56.764 131.261 57.916 130.493 59.116C129.749 60.316 129.017 61.54 128.297 62.788C127.865 63.484 127.445 64.192 127.037 64.912C126.629 65.608 126.221 66.304 125.813 67H122.069C123.413 64.816 124.685 62.632 125.885 60.448C127.085 58.264 128.309 56.044 129.557 53.788ZM156.515 52.168C156.155 53.128 155.747 54.004 155.291 54.796C154.859 55.564 154.403 56.32 153.923 57.064C153.731 57.376 153.527 57.688 153.311 58C153.119 58.312 152.927 58.636 152.735 58.972C152.399 59.572 152.039 60.172 151.655 60.772C151.271 61.372 150.911 61.96 150.575 62.536C150.455 62.704 150.323 62.908 150.179 63.148C150.059 63.388 149.951 63.64 149.855 63.904C149.759 64.168 149.699 64.432 149.675 64.696C149.675 64.96 149.747 65.212 149.891 65.452C150.035 65.644 150.179 65.752 150.323 65.776C150.611 65.872 150.959 65.812 151.367 65.596C151.799 65.38 152.243 65.068 152.699 64.66C153.155 64.252 153.611 63.784 154.067 63.256C154.547 62.728 154.991 62.2 155.399 61.672C155.807 61.144 156.155 60.64 156.443 60.16C156.755 59.68 156.983 59.284 157.127 58.972H157.091L157.235 58.72C157.355 58.552 157.475 58.384 157.595 58.216C157.715 58.048 157.799 58.072 157.847 58.288C157.871 58.336 157.871 58.42 157.847 58.54C157.847 58.66 157.811 58.792 157.739 58.936V58.9C157.547 59.164 157.367 59.464 157.199 59.8C157.031 60.112 156.863 60.412 156.695 60.7C156.215 61.564 155.699 62.404 155.147 63.22C154.595 64.036 153.983 64.756 153.311 65.38C152.639 66.004 151.907 66.508 151.115 66.892C150.323 67.276 149.447 67.468 148.487 67.468C148.151 67.468 147.827 67.396 147.515 67.252C147.203 67.132 146.951 66.88 146.759 66.496C146.519 66.112 146.399 65.656 146.399 65.128C146.399 64.576 146.507 64.024 146.723 63.472C146.915 62.896 147.107 62.392 147.299 61.96C147.707 61.12 148.127 60.328 148.559 59.584C149.015 58.84 149.483 58.12 149.963 57.424C150.299 56.872 150.635 56.308 150.971 55.732C151.307 55.156 151.643 54.58 151.979 54.004C152.147 53.716 152.255 53.464 152.303 53.248C152.375 53.008 152.447 52.768 152.519 52.528C152.519 52.48 152.519 52.432 152.519 52.384C152.543 52.336 152.555 52.288 152.555 52.24C152.603 52.12 152.639 51.988 152.663 51.844C152.711 51.7 152.771 51.592 152.843 51.52C153.107 51.4 153.455 51.328 153.887 51.304C154.319 51.28 154.679 51.268 154.967 51.268C155.183 51.268 155.423 51.28 155.687 51.304C155.975 51.304 156.239 51.28 156.479 51.232C156.479 51.28 156.479 51.304 156.479 51.304C156.479 51.304 156.491 51.328 156.515 51.376C156.539 51.496 156.551 51.628 156.551 51.772C156.575 51.892 156.563 52.024 156.515 52.168ZM156.011 46.336C156.011 46.048 156.071 45.748 156.191 45.436C156.335 45.124 156.515 44.848 156.731 44.608C156.947 44.344 157.187 44.14 157.451 43.996C157.739 43.828 158.027 43.732 158.315 43.708C158.627 43.684 158.879 43.732 159.071 43.852C159.287 43.948 159.443 44.104 159.539 44.32C159.635 44.512 159.683 44.74 159.683 45.004C159.683 45.244 159.635 45.484 159.539 45.724C159.347 46.18 159.011 46.6 158.531 46.984C158.051 47.344 157.583 47.524 157.127 47.524C156.863 47.524 156.623 47.428 156.407 47.236C156.215 47.044 156.083 46.744 156.011 46.336ZM159.703 53.428C159.895 53.164 159.991 52.9 159.991 52.636C159.991 52.372 160.003 52.084 160.027 51.772C160.051 51.508 160.051 51.364 160.027 51.34C160.027 51.292 160.123 51.268 160.315 51.268C160.483 51.268 160.759 51.256 161.143 51.232C161.527 51.208 161.911 51.196 162.295 51.196C162.703 51.172 163.051 51.16 163.339 51.16C163.651 51.136 163.795 51.124 163.771 51.124C163.819 51.196 163.867 51.304 163.915 51.448C163.987 51.592 164.023 51.736 164.023 51.88C163.975 52.216 163.855 52.564 163.663 52.924C163.495 53.284 163.339 53.632 163.195 53.968C163.675 53.56 164.155 53.164 164.635 52.78C165.115 52.396 165.631 52.06 166.183 51.772C166.423 51.628 166.699 51.496 167.011 51.376C167.323 51.256 167.647 51.172 167.983 51.124C168.319 51.076 168.655 51.064 168.991 51.088C169.327 51.088 169.639 51.148 169.927 51.268C170.575 51.58 170.923 52.048 170.971 52.672C171.043 53.296 171.007 53.908 170.863 54.508C170.599 55.348 170.179 56.164 169.603 56.956C169.027 57.724 168.499 58.468 168.019 59.188C167.587 59.836 167.167 60.484 166.759 61.132C166.351 61.78 165.955 62.452 165.571 63.148C165.499 63.292 165.391 63.496 165.247 63.76C165.103 64 164.995 64.252 164.923 64.516C164.851 64.756 164.851 64.972 164.923 65.164C164.995 65.332 165.211 65.392 165.571 65.344C166.339 65.152 167.011 64.84 167.587 64.408C168.187 63.952 168.727 63.436 169.207 62.86C169.687 62.284 170.131 61.672 170.539 61.024C170.971 60.376 171.403 59.764 171.835 59.188C171.883 59.116 171.955 58.984 172.051 58.792C172.147 58.6 172.255 58.432 172.375 58.288C172.519 58.144 172.651 58.048 172.771 58C172.915 57.952 173.059 58.024 173.203 58.216C173.275 58.336 173.287 58.468 173.239 58.612C173.215 58.756 173.155 58.912 173.059 59.08C172.963 59.224 172.867 59.368 172.771 59.512C172.675 59.632 172.591 59.728 172.519 59.8C171.943 60.592 171.331 61.408 170.683 62.248C170.059 63.064 169.387 63.832 168.667 64.552C167.947 65.248 167.155 65.86 166.291 66.388C165.427 66.892 164.479 67.228 163.447 67.396C163.015 67.42 162.619 67.336 162.259 67.144C161.923 66.976 161.659 66.664 161.467 66.208C161.251 65.704 161.179 65.176 161.251 64.624C161.347 64.072 161.515 63.532 161.755 63.004C162.019 62.452 162.307 61.924 162.619 61.42C162.955 60.916 163.255 60.46 163.519 60.052C163.951 59.356 164.395 58.66 164.851 57.964C165.331 57.268 165.775 56.572 166.183 55.876C166.375 55.612 166.555 55.348 166.723 55.084C166.915 54.796 167.083 54.508 167.227 54.22C167.347 54.028 167.431 53.788 167.479 53.5C167.551 53.212 167.479 52.996 167.263 52.852C167.071 52.732 166.855 52.72 166.615 52.816C166.399 52.912 166.195 52.996 166.003 53.068C165.187 53.428 164.455 53.956 163.807 54.652C163.183 55.324 162.595 55.984 162.043 56.632C161.803 56.896 161.587 57.172 161.395 57.46C161.203 57.724 161.011 58 160.819 58.288C159.979 59.584 159.127 60.88 158.263 62.176C157.423 63.448 156.583 64.732 155.743 66.028C155.695 66.148 155.611 66.304 155.491 66.496C155.395 66.688 155.299 66.832 155.203 66.928C155.083 67.024 154.891 67.048 154.627 67C154.363 66.976 154.171 66.976 154.051 67C153.355 67 152.839 67 152.503 67C152.143 67 151.927 66.952 151.855 66.856C151.759 66.736 151.783 66.532 151.927 66.244C152.071 65.956 152.311 65.524 152.647 64.948C153.727 63.244 154.783 61.552 155.815 59.872C156.871 58.192 157.915 56.488 158.947 54.76C159.067 54.544 159.187 54.328 159.307 54.112C159.451 53.896 159.583 53.668 159.703 53.428ZM176.835 62.428C176.187 63.148 175.515 63.892 174.819 64.66C174.147 65.428 173.391 66.052 172.551 66.532C172.215 66.724 171.867 66.88 171.507 67C171.147 67.096 170.787 67.132 170.427 67.108C170.091 67.084 169.779 66.988 169.491 66.82C169.179 66.628 168.927 66.328 168.735 65.92C168.567 65.536 168.495 65.128 168.519 64.696C168.519 64.264 168.579 63.832 168.699 63.4C168.795 62.968 168.939 62.548 169.131 62.14C169.323 61.732 169.515 61.348 169.707 60.988C170.259 60.076 170.811 59.152 171.363 58.216C171.939 57.256 172.503 56.308 173.055 55.372C173.271 55.012 173.463 54.652 173.631 54.292C173.823 53.908 174.003 53.5 174.171 53.068C174.195 52.972 174.219 52.852 174.243 52.708C174.267 52.54 174.291 52.384 174.315 52.24C174.339 52.072 174.375 51.916 174.423 51.772C174.471 51.628 174.543 51.52 174.639 51.448C174.711 51.448 174.879 51.448 175.143 51.448C175.407 51.424 175.707 51.412 176.043 51.412C176.403 51.388 176.751 51.376 177.087 51.376C177.447 51.376 177.735 51.376 177.951 51.376C178.047 51.424 178.095 51.508 178.095 51.628C178.095 51.748 178.095 51.844 178.095 51.916C178.119 52.348 178.035 52.804 177.843 53.284C177.675 53.74 177.483 54.148 177.267 54.508C176.763 55.516 176.223 56.488 175.647 57.424C175.119 58.384 174.567 59.32 173.991 60.232C173.415 61.144 172.851 62.068 172.299 63.004C172.155 63.268 171.999 63.616 171.831 64.048C171.687 64.456 171.747 64.792 172.011 65.056C172.179 65.224 172.371 65.296 172.587 65.272C172.827 65.224 173.055 65.14 173.271 65.02C173.511 64.9 173.715 64.756 173.883 64.588C174.075 64.42 174.231 64.276 174.351 64.156C175.119 63.46 175.815 62.668 176.439 61.78C177.063 60.892 177.663 60.028 178.239 59.188C178.863 58.276 179.439 57.34 179.967 56.38C180.519 55.42 180.999 54.436 181.407 53.428C181.527 53.092 181.671 52.732 181.839 52.348C182.031 51.964 182.187 51.676 182.307 51.484C182.691 51.46 183.171 51.424 183.747 51.376C184.347 51.328 184.851 51.304 185.259 51.304H185.979C185.955 51.472 185.919 51.64 185.871 51.808C185.823 51.952 185.775 52.12 185.727 52.312C185.703 52.48 185.655 52.624 185.583 52.744C185.151 53.704 184.647 54.64 184.071 55.552C183.495 56.44 182.931 57.34 182.379 58.252C181.827 59.14 181.311 60.052 180.831 60.988C180.351 61.924 179.979 62.908 179.715 63.94C179.643 64.54 179.751 64.888 180.039 64.984C180.351 65.056 180.711 64.924 181.119 64.588C182.199 63.676 183.171 62.644 184.035 61.492C184.899 60.34 185.715 59.164 186.483 57.964C186.627 57.844 186.783 57.808 186.951 57.856C187.119 57.88 187.179 58.024 187.131 58.288C186.315 59.608 185.427 60.892 184.467 62.14C183.531 63.364 182.487 64.528 181.335 65.632C180.807 66.064 180.243 66.424 179.643 66.712C179.067 66.976 178.467 67.036 177.843 66.892C177.339 66.772 176.979 66.544 176.763 66.208C176.571 65.848 176.463 65.452 176.439 65.02C176.439 64.564 176.487 64.108 176.583 63.652C176.679 63.172 176.763 62.764 176.835 62.428ZM189.191 47.524H192.251L193.799 45.292L194.195 44.572V44.608C194.507 44.032 194.831 43.432 195.167 42.808C195.503 42.16 195.743 41.56 195.887 41.008C195.887 40.96 195.899 40.924 195.923 40.9C195.947 40.852 195.959 40.804 195.959 40.756C196.007 40.612 196.067 40.456 196.139 40.288C196.211 40.12 196.295 39.988 196.391 39.892C196.559 39.796 196.847 39.724 197.255 39.676C197.663 39.628 198.095 39.604 198.551 39.604C199.055 39.604 199.511 39.628 199.919 39.676C200.327 39.724 200.507 39.796 200.459 39.892C200.387 40.18 200.267 40.54 200.099 40.972C199.931 41.404 199.679 41.92 199.343 42.52C199.031 43.12 198.611 43.84 198.083 44.68C197.579 45.496 196.955 46.444 196.211 47.524H198.587V48.784H195.527C194.759 49.936 193.943 51.184 193.079 52.528C192.239 53.848 191.423 55.192 190.631 56.56C189.863 57.904 189.155 59.212 188.507 60.484C187.883 61.756 187.415 62.92 187.103 63.976C186.935 64.6 187.043 65.032 187.427 65.272C187.835 65.488 188.315 65.5 188.867 65.308C189.203 65.188 189.599 64.924 190.055 64.516C190.511 64.108 191.003 63.616 191.531 63.04C192.059 62.464 192.587 61.852 193.115 61.204C193.667 60.532 194.183 59.884 194.663 59.26C195.167 58.636 195.599 58.072 195.959 57.568C196.343 57.04 196.631 56.644 196.823 56.38C196.871 56.332 196.907 56.284 196.931 56.236C196.955 56.188 196.979 56.152 197.003 56.128C197.099 56.128 197.171 56.188 197.219 56.308C197.123 56.62 196.895 57.076 196.535 57.676C196.199 58.252 195.767 58.9 195.239 59.62C194.711 60.34 194.111 61.096 193.439 61.888C192.767 62.68 192.047 63.424 191.279 64.12C190.511 64.816 189.719 65.44 188.903 65.992C188.087 66.544 187.271 66.952 186.455 67.216C185.663 67.336 184.955 67.216 184.331 66.856C183.683 66.496 183.311 65.896 183.215 65.056C183.191 64.456 183.275 63.832 183.467 63.184C183.635 62.512 183.971 61.696 184.475 60.736C184.979 59.752 185.651 58.552 186.491 57.136C187.355 55.696 188.435 53.92 189.731 51.808L191.603 48.784H189.191V47.524ZM194.38 64.12C194.452 64.672 194.644 65.044 194.956 65.236C195.268 65.404 195.628 65.464 196.036 65.416C196.468 65.368 196.9 65.248 197.332 65.056C197.764 64.864 198.124 64.672 198.412 64.48C199.084 64.072 199.756 63.544 200.428 62.896C201.124 62.224 201.772 61.552 202.372 60.88C202.972 60.184 203.512 59.536 203.992 58.936C204.472 58.336 204.856 57.88 205.144 57.568C205.312 57.376 205.42 57.34 205.468 57.46C205.54 57.556 205.552 57.7 205.504 57.892C205.384 58.252 205.144 58.696 204.784 59.224C204.424 59.728 203.992 60.268 203.488 60.844C202.984 61.42 202.432 62.008 201.832 62.608C201.256 63.208 200.68 63.76 200.104 64.264C199.528 64.768 198.988 65.212 198.484 65.596C198.004 65.98 197.608 66.256 197.296 66.424C196.84 66.688 196.312 66.892 195.712 67.036C195.136 67.204 194.56 67.276 193.984 67.252C193.432 67.228 192.904 67.084 192.4 66.82C191.92 66.556 191.536 66.136 191.248 65.56C191.008 65.056 190.888 64.516 190.888 63.94C190.864 63.364 190.924 62.788 191.068 62.212C191.188 61.636 191.368 61.084 191.608 60.556C191.824 60.004 192.064 59.488 192.328 59.008C193.024 57.664 193.876 56.464 194.884 55.408C195.892 54.352 197.044 53.44 198.34 52.672C198.964 52.264 199.612 51.928 200.284 51.664C200.98 51.4 201.688 51.208 202.408 51.088C202.864 50.992 203.356 50.968 203.884 51.016C204.412 51.064 204.808 51.316 205.072 51.772C205.288 52.108 205.384 52.468 205.36 52.852C205.336 53.212 205.252 53.572 205.108 53.932C204.964 54.292 204.772 54.628 204.532 54.94C204.316 55.252 204.088 55.528 203.848 55.768C203.272 56.392 202.612 56.932 201.868 57.388C201.148 57.844 200.416 58.24 199.672 58.576C199.264 58.744 198.856 58.9 198.448 59.044C198.064 59.164 197.656 59.284 197.224 59.404C196.984 59.452 196.696 59.488 196.36 59.512C196.024 59.536 195.772 59.644 195.604 59.836C195.412 60.028 195.256 60.316 195.136 60.7C195.04 61.084 194.932 61.408 194.812 61.672C194.644 62.056 194.512 62.464 194.416 62.896C194.344 63.304 194.332 63.712 194.38 64.12ZM196.144 58.72C196.984 58.672 197.74 58.408 198.412 57.928C199.108 57.448 199.768 56.932 200.392 56.38C200.704 56.116 200.992 55.84 201.256 55.552C201.544 55.24 201.796 54.916 202.012 54.58C202.156 54.316 202.324 53.992 202.516 53.608C202.708 53.2 202.792 52.84 202.768 52.528C202.744 52.264 202.66 52.108 202.516 52.06C202.372 52.012 202.192 52.036 201.976 52.132C201.76 52.204 201.52 52.336 201.256 52.528C201.016 52.696 200.788 52.876 200.572 53.068C200.356 53.26 200.164 53.452 199.996 53.644C199.828 53.812 199.72 53.92 199.672 53.968C198.976 54.688 198.34 55.456 197.764 56.272C197.212 57.064 196.672 57.88 196.144 58.72ZM213.463 51.268C213.439 51.46 213.379 51.652 213.283 51.844C213.187 52.012 213.079 52.192 212.959 52.384L212.599 52.924C212.407 53.476 212.239 54.088 212.095 54.76C211.975 55.408 211.855 56.032 211.735 56.632V56.596C211.519 57.604 211.291 58.6 211.051 59.584C210.811 60.568 210.487 61.504 210.079 62.392C209.671 63.28 209.143 64.096 208.495 64.84C207.871 65.56 207.055 66.148 206.047 66.604C205.639 66.796 205.207 66.94 204.751 67.036C204.295 67.156 203.827 67.216 203.347 67.216C202.723 67.216 202.147 67.108 201.619 66.892C201.259 66.724 200.971 66.484 200.755 66.172C200.515 65.86 200.395 65.536 200.395 65.2C200.395 64.984 200.443 64.768 200.539 64.552C200.635 64.336 200.791 64.132 201.007 63.94C201.151 63.82 201.379 63.7 201.691 63.58C201.979 63.46 202.231 63.46 202.447 63.58C202.591 63.676 202.663 63.82 202.663 64.012C202.663 64.18 202.639 64.36 202.591 64.552C202.567 64.624 202.555 64.732 202.555 64.876C202.555 65.14 202.627 65.416 202.771 65.704C202.939 65.992 203.155 66.112 203.419 66.064C203.611 66.064 203.815 65.992 204.031 65.848C204.247 65.704 204.451 65.536 204.643 65.344C204.859 65.152 205.051 64.96 205.219 64.768C205.387 64.576 205.519 64.42 205.615 64.3C206.455 62.788 207.115 61.18 207.595 59.476C208.099 57.772 208.519 56.092 208.855 54.436C208.447 54.892 208.063 55.348 207.703 55.804C207.343 56.236 206.971 56.692 206.587 57.172C205.291 58.78 203.971 60.376 202.627 61.96C201.283 63.52 199.819 64.972 198.235 66.316C198.043 66.46 197.851 66.604 197.659 66.748C197.443 66.868 197.215 66.952 196.975 67C196.711 67.072 196.519 67.036 196.399 66.892C196.255 66.724 196.219 66.484 196.291 66.172C196.363 65.932 196.495 65.752 196.687 65.632C196.879 65.488 197.083 65.368 197.299 65.272L197.695 65.02C198.607 64.444 199.495 63.772 200.359 63.004C201.199 62.236 202.003 61.42 202.771 60.556C203.539 59.692 204.283 58.816 205.003 57.928C205.723 57.016 206.407 56.128 207.055 55.264C207.463 54.712 207.859 54.184 208.243 53.68C208.651 53.152 209.059 52.648 209.467 52.168C209.659 51.904 209.875 51.7 210.115 51.556C210.355 51.412 210.607 51.316 210.871 51.268C211.135 51.196 211.411 51.16 211.699 51.16C212.011 51.16 212.323 51.172 212.635 51.196V51.16C212.755 51.16 212.875 51.172 212.995 51.196C213.139 51.196 213.271 51.196 213.391 51.196L213.463 51.268Z" fill="#0BA4F2"/>
</svg>
