<svg width="26" height="26" viewBox="0 0 26 26" fill="none" xmlns="http://www.w3.org/2000/svg">
<path d="M13.5 8.2C13.5 7.92386 13.2761 7.7 13 7.7C12.7239 7.7 12.5 7.92386 12.5 8.2H13.5ZM10.6 14.9C10.3239 14.9 10.1 15.1239 10.1 15.4C10.1 15.6761 10.3239 15.9 10.6 15.9V14.9ZM7.5 8.2C7.5 7.92386 7.27614 7.7 7 7.7C6.72386 7.7 6.5 7.92386 6.5 8.2H7.5ZM6.5 11.2C6.5 11.4761 6.72386 11.7 7 11.7C7.27614 11.7 7.5 11.4761 7.5 11.2H6.5ZM19.5 8.2C19.5 7.92386 19.2761 7.7 19 7.7C18.7239 7.7 18.5 7.92386 18.5 8.2H19.5ZM18.5 11.2C18.5 11.4761 18.7239 11.7 19 11.7C19.2761 11.7 19.5 11.4761 19.5 11.2H18.5ZM8.5992 18.6997C8.43335 18.4789 8.11992 18.4344 7.89913 18.6002C7.67833 18.7661 7.63379 19.0795 7.79963 19.3003L8.5992 18.6997ZM18.2001 19.3003C18.3659 19.0795 18.3214 18.7661 18.1006 18.6002C17.8798 18.4344 17.5664 18.4789 17.4005 18.6997L18.2001 19.3003ZM0.5 8.2C0.5 8.47614 0.723858 8.7 1 8.7C1.27614 8.7 1.5 8.47614 1.5 8.2H0.5ZM1 4.6H1.5H1ZM4.6 1V0.5V1ZM8.2 1.5C8.47614 1.5 8.7 1.27614 8.7 1C8.7 0.723858 8.47614 0.5 8.2 0.5V1.5ZM25.5 17.8C25.5 17.5239 25.2761 17.3 25 17.3C24.7239 17.3 24.5 17.5239 24.5 17.8H25.5ZM17.8 24.5C17.5239 24.5 17.3 24.7239 17.3 25C17.3 25.2761 17.5239 25.5 17.8 25.5V24.5ZM17.8 0.5C17.5239 0.5 17.3 0.723858 17.3 1C17.3 1.27614 17.5239 1.5 17.8 1.5V0.5ZM21.4 1V0.5V1ZM25 4.6H24.5H25ZM24.5 8.2C24.5 8.47614 24.7239 8.7 25 8.7C25.2761 8.7 25.5 8.47614 25.5 8.2H24.5ZM8.2 25.5C8.47614 25.5 8.7 25.2761 8.7 25C8.7 24.7239 8.47614 24.5 8.2 24.5V25.5ZM4.6 25V25.5V25ZM1 21.4H1.5H1ZM1.5 17.8C1.5 17.5239 1.27614 17.3 1 17.3C0.723858 17.3 0.5 17.5239 0.5 17.8H1.5ZM12.5 8.2V14.2H13.5V8.2H12.5ZM11.8 14.9H10.6V15.9H11.8V14.9ZM12.5 14.2C12.5 14.5866 12.1866 14.9 11.8 14.9V15.9C12.7389 15.9 13.5 15.1389 13.5 14.2H12.5ZM6.5 8.2V11.2H7.5V8.2H6.5ZM18.5 8.2V11.2H19.5V8.2H18.5ZM12.9999 20.9C11.2008 20.9 9.60347 20.0367 8.5992 18.6997L7.79963 19.3003C8.98465 20.8779 10.873 21.9 12.9999 21.9V20.9ZM17.4005 18.6997C16.3962 20.0367 14.7989 20.9 12.9999 20.9V21.9C15.1267 21.9 17.0151 20.8779 18.2001 19.3003L17.4005 18.6997ZM1.5 8.2L1.5 4.6H0.5L0.5 8.2H1.5ZM4.6 1.5L8.2 1.5V0.5L4.6 0.5L4.6 1.5ZM1.5 4.6C1.5 2.88792 2.88792 1.5 4.6 1.5L4.6 0.5C2.33563 0.5 0.500001 2.33563 0.5 4.6H1.5ZM24.5 17.8V21.4H25.5V17.8H24.5ZM21.4 24.5H17.8V25.5H21.4V24.5ZM24.5 21.4C24.5 23.1121 23.1121 24.5 21.4 24.5V25.5C23.6644 25.5 25.5 23.6644 25.5 21.4H24.5ZM17.8 1.5L21.4 1.5V0.5L17.8 0.5V1.5ZM24.5 4.6V8.2H25.5V4.6H24.5ZM21.4 1.5C23.1121 1.5 24.5 2.88792 24.5 4.6H25.5C25.5 2.33563 23.6644 0.5 21.4 0.5V1.5ZM8.2 24.5H4.6V25.5H8.2V24.5ZM1.5 21.4L1.5 17.8H0.5L0.5 21.4H1.5ZM4.6 24.5C2.88792 24.5 1.5 23.1121 1.5 21.4H0.5C0.5 23.6644 2.33563 25.5 4.6 25.5V24.5Z" fill="#F8FBFF"/>
</svg>
