<svg width="40" height="42" viewBox="0 0 40 42" fill="none" xmlns="http://www.w3.org/2000/svg">
<path d="M3.58658 38.072C3.30658 38.072 2.99458 38.06 2.65058 38.036C2.31458 38.012 1.98658 37.98 1.66658 37.94C1.34658 37.9 1.07058 37.856 0.838578 37.808V36.644C1.17458 36.668 1.59058 36.692 2.08658 36.716C2.58258 36.732 3.05858 36.74 3.51458 36.74C3.99458 36.74 4.38658 36.672 4.69058 36.536C4.99458 36.392 5.14658 36.108 5.14658 35.684V35.264C5.14658 34.616 4.79858 34.292 4.10258 34.292H3.27458C2.46658 34.292 1.84258 34.116 1.40258 33.764C0.970578 33.412 0.754578 32.808 0.754578 31.952V31.496C0.754578 30.64 0.990578 30.024 1.46258 29.648C1.94258 29.264 2.62658 29.072 3.51458 29.072C3.81058 29.072 4.12258 29.088 4.45058 29.12C4.77858 29.144 5.09058 29.18 5.38658 29.228C5.68258 29.268 5.93458 29.308 6.14258 29.348V30.512C5.78258 30.488 5.37858 30.464 4.93058 30.44C4.48258 30.416 4.06658 30.404 3.68258 30.404C3.21858 30.404 2.85058 30.48 2.57858 30.632C2.30658 30.784 2.17058 31.092 2.17058 31.556V31.856C2.17058 32.232 2.27058 32.496 2.47058 32.648C2.67858 32.8 2.97458 32.876 3.35858 32.876H4.28258C5.05058 32.876 5.62258 33.084 5.99858 33.5C6.37458 33.916 6.56258 34.444 6.56258 35.084V35.648C6.56258 36.312 6.43458 36.82 6.17858 37.172C5.92258 37.516 5.57058 37.752 5.12258 37.88C4.67458 38.008 4.16258 38.072 3.58658 38.072ZM10.5461 38.06C9.85011 38.06 9.29411 37.964 8.87811 37.772C8.47011 37.58 8.17411 37.248 7.99011 36.776C7.81411 36.296 7.72611 35.632 7.72611 34.784C7.72611 33.92 7.81011 33.248 7.97811 32.768C8.15411 32.288 8.44611 31.956 8.85411 31.772C9.26211 31.58 9.81411 31.484 10.5101 31.484C11.1181 31.484 11.6101 31.548 11.9861 31.676C12.3621 31.796 12.6341 32.016 12.8021 32.336C12.9781 32.656 13.0661 33.1 13.0661 33.668C13.0661 34.292 12.8861 34.724 12.5261 34.964C12.1661 35.204 11.6821 35.324 11.0741 35.324H9.19011C9.20611 35.724 9.25811 36.044 9.34611 36.284C9.44211 36.516 9.61011 36.684 9.85011 36.788C10.0981 36.892 10.4581 36.944 10.9301 36.944H12.8741V37.82C12.5461 37.884 12.1981 37.94 11.8301 37.988C11.4701 38.036 11.0421 38.06 10.5461 38.06ZM9.17811 34.424H10.9301C11.2101 34.424 11.4141 34.372 11.5421 34.268C11.6781 34.156 11.7461 33.956 11.7461 33.668C11.7461 33.252 11.6501 32.964 11.4581 32.804C11.2741 32.644 10.9581 32.564 10.5101 32.564C10.1741 32.564 9.90611 32.616 9.70611 32.72C9.51411 32.824 9.37811 33.012 9.29811 33.284C9.21811 33.556 9.17811 33.936 9.17811 34.424ZM16.7269 38C16.0309 38 15.5229 37.836 15.2029 37.508C14.8829 37.18 14.7349 36.608 14.7589 35.792L14.8069 32.768H13.7989V31.808L14.8549 31.568L15.0709 29.768H16.2349V31.568H17.8669V32.768H16.2349V35.78C16.2349 36.06 16.2709 36.272 16.3429 36.416C16.4149 36.56 16.5109 36.664 16.6309 36.728C16.7509 36.784 16.8709 36.816 16.9909 36.824L17.7949 36.908V38H16.7269ZM21.2972 38C20.6012 38 20.0932 37.836 19.7732 37.508C19.4532 37.18 19.3052 36.608 19.3292 35.792L19.3772 32.768H18.3692V31.808L19.4252 31.568L19.6412 29.768H20.8052V31.568H22.4372V32.768H20.8052V35.78C20.8052 36.06 20.8412 36.272 20.9132 36.416C20.9852 36.56 21.0812 36.664 21.2012 36.728C21.3212 36.784 21.4412 36.816 21.5612 36.824L22.3652 36.908V38H21.2972ZM23.7195 30.548C23.5675 30.548 23.4915 30.476 23.4915 30.332V29.24C23.4915 29.08 23.5675 29 23.7195 29H24.8475C24.9915 29 25.0635 29.08 25.0635 29.24V30.332C25.0635 30.476 24.9915 30.548 24.8475 30.548H23.7195ZM23.5275 38V31.568H25.0155V38H23.5275ZM26.5392 38V31.568H27.7512L28.0272 32.24C28.2912 32.04 28.6112 31.86 28.9872 31.7C29.3712 31.54 29.7672 31.46 30.1752 31.46C30.6792 31.46 31.0752 31.564 31.3632 31.772C31.6512 31.98 31.8552 32.256 31.9752 32.6C32.1032 32.936 32.1672 33.308 32.1672 33.716V38H30.6792V33.896C30.6792 33.552 30.5832 33.284 30.3912 33.092C30.1992 32.9 29.9392 32.804 29.6112 32.804C29.2992 32.804 29.0192 32.852 28.7712 32.948C28.5232 33.044 28.2752 33.172 28.0272 33.332V38H26.5392ZM35.2965 40.964C34.6805 40.964 34.1725 40.832 33.7725 40.568C33.3805 40.304 33.1845 39.916 33.1845 39.404V39.176C33.1845 38.832 33.2765 38.54 33.4605 38.3C33.6525 38.06 33.8925 37.876 34.1805 37.748C33.7565 37.516 33.5445 37.172 33.5445 36.716C33.5445 36.396 33.6365 36.132 33.8205 35.924C34.0125 35.716 34.2765 35.576 34.6125 35.504C34.2045 35.304 33.9245 35.036 33.7725 34.7C33.6205 34.364 33.5445 34.016 33.5445 33.656C33.5445 32.928 33.7645 32.396 34.2045 32.06C34.6525 31.724 35.3005 31.556 36.1485 31.556H39.6165V32.384L38.4765 32.54C38.6045 32.66 38.7325 32.824 38.8605 33.032C38.9965 33.232 39.0645 33.552 39.0645 33.992C39.0645 34.352 38.9885 34.68 38.8365 34.976C38.6925 35.272 38.4525 35.508 38.1165 35.684C37.7805 35.86 37.3285 35.948 36.7605 35.948H35.6685C35.4045 35.948 35.1925 35.988 35.0325 36.068C34.8805 36.148 34.8045 36.284 34.8045 36.476C34.8045 36.636 34.8685 36.748 34.9965 36.812C35.1245 36.876 35.2605 36.908 35.4045 36.908H37.3125C38.0485 36.908 38.6125 37.056 39.0045 37.352C39.3965 37.64 39.5925 38.116 39.5925 38.78V38.984C39.5925 39.6 39.3925 40.084 38.9925 40.436C38.5925 40.788 37.9885 40.964 37.1805 40.964H35.2965ZM35.9085 34.832H36.6045C37.0525 34.832 37.3485 34.732 37.4925 34.532C37.6445 34.332 37.7205 34.088 37.7205 33.8C37.7205 33.384 37.6245 33.096 37.4325 32.936C37.2485 32.768 36.9925 32.684 36.6645 32.684H35.9925C35.6325 32.684 35.3565 32.764 35.1645 32.924C34.9805 33.084 34.8885 33.356 34.8885 33.74C34.8885 34.124 34.9725 34.404 35.1405 34.58C35.3165 34.748 35.5725 34.832 35.9085 34.832ZM35.6925 39.908H37.0005C37.3685 39.908 37.6565 39.836 37.8645 39.692C38.0805 39.556 38.1885 39.344 38.1885 39.056V38.852C38.1885 38.596 38.1045 38.392 37.9365 38.24C37.7685 38.096 37.4845 38.024 37.0845 38.024H35.6565C35.3605 38.024 35.1085 38.096 34.9005 38.24C34.6925 38.384 34.5885 38.6 34.5885 38.888V39.08C34.5885 39.36 34.6845 39.568 34.8765 39.704C35.0685 39.84 35.3405 39.908 35.6925 39.908Z" fill="black"/>
<path d="M13.334 4.54499C14.3607 3.62527 15.5667 2.92799 16.876 2.49699C17.2504 2.96602 17.7257 3.34462 18.2665 3.60466C18.8074 3.8647 19.3999 3.99949 20 3.99899C20.6001 3.99949 21.1926 3.8647 21.7335 3.60466C22.2743 3.34462 22.7496 2.96602 23.124 2.49699C24.4333 2.92799 25.6393 3.62527 26.666 4.54499C26.4475 5.10344 26.3576 5.70393 26.4029 6.30188C26.4483 6.89984 26.6278 7.47989 26.928 7.99899C27.2276 8.51908 27.6406 8.96494 28.1363 9.30342C28.6319 9.64189 29.1975 9.86426 29.791 9.95399C30.0715 11.3029 30.0715 12.6951 29.791 14.044C28.631 14.222 27.561 14.904 26.928 15.999C26.6276 16.5182 26.4481 17.0985 26.4027 17.6966C26.3573 18.2947 26.4473 18.8954 26.666 19.454C25.6392 20.3734 24.4332 21.0703 23.124 21.501C22.7495 21.0322 22.2742 20.6537 21.7333 20.3939C21.1925 20.134 20.6 19.9994 20 20C19.3999 19.9995 18.8074 20.1343 18.2665 20.3943C17.7257 20.6544 17.2504 21.033 16.876 21.502C15.5668 21.0713 14.3608 20.3744 13.334 19.455C13.5526 18.8964 13.6426 18.2957 13.5973 17.6976C13.5519 17.0995 13.3724 16.5192 13.072 16C12.7723 15.4801 12.3592 15.0344 11.8636 14.6961C11.3679 14.3578 10.8024 14.1356 10.209 14.046C9.9283 12.6968 9.9283 11.3042 10.209 9.95499C10.8025 9.86526 11.3681 9.64289 11.8637 9.30441C12.3594 8.96594 12.7724 8.52009 13.072 7.99999C13.3722 7.48089 13.5517 6.90084 13.597 6.30288C13.6424 5.70493 13.5525 5.10444 13.334 4.54599V4.54499ZM21.5 14.597C21.8439 14.4014 22.1458 14.1398 22.3882 13.8271C22.6306 13.5144 22.8088 13.1569 22.9124 12.7751C23.0161 12.3933 23.0432 11.9947 22.9922 11.6024C22.9412 11.21 22.8131 10.8316 22.6153 10.489C22.4175 10.1464 22.1538 9.84626 21.8395 9.60594C21.5252 9.36561 21.1665 9.18982 20.784 9.0887C20.4015 8.98757 20.0028 8.9631 19.6108 9.0167C19.2188 9.0703 18.8413 9.2009 18.5 9.40099C17.8166 9.80165 17.3194 10.4564 17.1169 11.2222C16.9144 11.9881 17.0231 12.803 17.4192 13.4891C17.8153 14.1751 18.4667 14.6767 19.2312 14.8842C19.9957 15.0918 20.8113 14.9885 21.5 14.597Z" fill="black"/>
</svg>
