<svg width="22" height="22" viewBox="0 0 22 22" fill="none" xmlns="http://www.w3.org/2000/svg">
<path d="M14.2656 4.24417V7.01308H13.3177V4.69749H11.4297V1.32445H10.5703V4.69749H8.68184V7.01308H7.73438V4.24417H0.644531V20.6759H21.3555V4.24417H14.2656ZM9.54121 5.55687H12.4584V7.01308H9.54121V5.55687ZM6.875 7.01308H6.23047V10.0209H6.875V19.8178H1.50391V5.10355H6.875V7.01308ZM11.8972 19.8178H10.1024V17.1876H11.8972V19.8178ZM14.2656 19.8178H12.7566V16.3283H9.24301V19.8173H7.73438V15.4689H14.2656V19.8178ZM14.2656 14.6095H7.73438V10.0209H14.2656V14.6095ZM14.9102 9.16281H7.08984V7.87374H14.9102V9.16281ZM20.4961 19.8191H15.125V10.0222H15.7695V7.01437H15.125V5.10355H20.4961V19.8191Z" fill="#F7A000"/>
<path d="M9.53906 11.1708H8.67969V12.0302H9.53906V11.1708Z" fill="#F7A000"/>
<path d="M11.4297 11.1708H10.5703V12.0302H11.4297V11.1708Z" fill="#F7A000"/>
<path d="M13.3203 11.1708H12.4609V12.0302H13.3203V11.1708Z" fill="#F7A000"/>
<path d="M9.53906 12.8896H8.67969V13.7489H9.53906V12.8896Z" fill="#F7A000"/>
<path d="M11.4297 12.8896H10.5703V13.7489H11.4297V12.8896Z" fill="#F7A000"/>
<path d="M13.3203 12.8896H12.4609V13.7489H13.3203V12.8896Z" fill="#F7A000"/>
<path d="M3.75073 6.01456H2.89136V6.87393H3.75073V6.01456Z" fill="#F7A000"/>
<path d="M5.48755 6.01456H4.62817V6.87393H5.48755V6.01456Z" fill="#F7A000"/>
<path d="M3.75073 7.73331H2.89136V8.59268H3.75073V7.73331Z" fill="#F7A000"/>
<path d="M5.48755 7.73331H4.62817V8.59268H5.48755V7.73331Z" fill="#F7A000"/>
<path d="M3.75073 9.45206H2.89136V10.3114H3.75073V9.45206Z" fill="#F7A000"/>
<path d="M5.48755 9.45206H4.62817V10.3114H5.48755V9.45206Z" fill="#F7A000"/>
<path d="M3.75073 11.1708H2.89136V12.0302H3.75073V11.1708Z" fill="#F7A000"/>
<path d="M5.48755 11.1708H4.62817V12.0302H5.48755V11.1708Z" fill="#F7A000"/>
<path d="M3.75073 12.8896H2.89136V13.7489H3.75073V12.8896Z" fill="#F7A000"/>
<path d="M5.48755 12.8896H4.62817V13.7489H5.48755V12.8896Z" fill="#F7A000"/>
<path d="M3.75073 14.6083H2.89136V15.4677H3.75073V14.6083Z" fill="#F7A000"/>
<path d="M5.48755 14.6083H4.62817V15.4677H5.48755V14.6083Z" fill="#F7A000"/>
<path d="M3.75073 16.327H2.89136V17.1864H3.75073V16.327Z" fill="#F7A000"/>
<path d="M5.48755 16.327H4.62817V17.1864H5.48755V16.327Z" fill="#F7A000"/>
<path d="M3.75073 18.0458H2.89136V18.9052H3.75073V18.0458Z" fill="#F7A000"/>
<path d="M5.48755 18.0458H4.62817V18.9052H5.48755V18.0458Z" fill="#F7A000"/>
<path d="M17.4441 6.01456H16.5847V6.87393H17.4441V6.01456Z" fill="#F7A000"/>
<path d="M19.1807 6.01456H18.3213V6.87393H19.1807V6.01456Z" fill="#F7A000"/>
<path d="M17.4441 7.73331H16.5847V8.59268H17.4441V7.73331Z" fill="#F7A000"/>
<path d="M19.1807 7.73331H18.3213V8.59268H19.1807V7.73331Z" fill="#F7A000"/>
<path d="M17.4441 9.45206H16.5847V10.3114H17.4441V9.45206Z" fill="#F7A000"/>
<path d="M19.1807 9.45206H18.3213V10.3114H19.1807V9.45206Z" fill="#F7A000"/>
<path d="M17.4441 11.1708H16.5847V12.0302H17.4441V11.1708Z" fill="#F7A000"/>
<path d="M19.1807 11.1708H18.3213V12.0302H19.1807V11.1708Z" fill="#F7A000"/>
<path d="M17.4441 12.8896H16.5847V13.7489H17.4441V12.8896Z" fill="#F7A000"/>
<path d="M19.1807 12.8896H18.3213V13.7489H19.1807V12.8896Z" fill="#F7A000"/>
<path d="M17.4441 14.6083H16.5847V15.4677H17.4441V14.6083Z" fill="#F7A000"/>
<path d="M19.1807 14.6083H18.3213V15.4677H19.1807V14.6083Z" fill="#F7A000"/>
<path d="M17.4441 16.327H16.5847V17.1864H17.4441V16.327Z" fill="#F7A000"/>
<path d="M19.1807 16.327H18.3213V17.1864H19.1807V16.327Z" fill="#F7A000"/>
<path d="M17.4441 18.0458H16.5847V18.9052H17.4441V18.0458Z" fill="#F7A000"/>
<path d="M19.1807 18.0458H18.3213V18.9052H19.1807V18.0458Z" fill="#F7A000"/>
</svg>
