<svg width="24" height="24" viewBox="0 0 24 24" fill="none" xmlns="http://www.w3.org/2000/svg">
<path d="M14.086 20.5656H13.6746V12.1489C13.6746 11.9547 13.5173 11.7974 13.323 11.7974C13.1289 11.7974 12.9714 11.9547 12.9714 12.1489V20.5656H9.92749C9.47888 20.5656 9.11377 20.9307 9.11377 21.3793V23.1862C9.11377 23.6348 9.47888 23.9999 9.92749 23.9999H14.086C14.5346 23.9999 14.8997 23.6348 14.8997 23.1862V21.3793C14.8997 20.9305 14.5346 20.5656 14.086 20.5656ZM14.1966 23.1862C14.1966 23.2471 14.147 23.2968 14.086 23.2968H9.92767C9.86652 23.2968 9.81689 23.2471 9.81689 23.1862V21.3793C9.81689 21.3183 9.8667 21.2687 9.92767 21.2687H14.086C14.147 21.2687 14.1966 21.3183 14.1966 21.3793V23.1862Z" fill="#F7A000"/>
<path d="M21.7198 6.35028L21.3119 5.05005C21.2332 4.79883 21.0676 4.5954 20.8543 4.46704V4.2887C20.8543 3.71246 20.3857 3.24371 19.8097 3.24371H19.4296C19.2825 2.39832 18.8596 1.62268 18.2167 1.03326C17.4896 0.366943 16.5477 0 15.5646 0C13.9783 0 12.6107 0.9505 11.9986 2.31171C11.8587 1.99933 11.6783 1.70453 11.4597 1.43701C10.8994 0.751282 10.1168 0.271912 9.25585 0.0869751C9.06634 0.0463257 8.87902 0.167175 8.83819 0.357056C8.79754 0.546753 8.91839 0.733704 9.10827 0.774536C10.574 1.08929 11.6381 2.40839 11.6381 3.91113C11.6381 3.94904 11.6443 3.98547 11.6553 4.0199V6.99188C10.904 7.15393 10.3391 7.82355 10.3391 8.62299V19.3231C10.3391 19.5174 10.4964 19.6747 10.6907 19.6747C10.8848 19.6747 11.0422 19.5174 11.0422 19.3231V8.62299C11.0422 8.09253 11.472 7.66077 12.0015 7.65765C12.0034 7.65765 12.005 7.65802 12.0068 7.65802C12.0087 7.65802 12.0105 7.65784 12.0123 7.65765C12.5419 7.66077 12.9716 8.09235 12.9716 8.62299V10.6057C12.9716 10.7997 13.1291 10.9572 13.3232 10.9572C13.5175 10.9572 13.6747 10.7997 13.6747 10.6057V8.62299C13.6747 7.82355 13.1099 7.15393 12.3584 6.99188V3.91113C12.3584 2.14215 13.7967 0.703125 15.5646 0.703125C17.0858 0.703125 18.3998 1.79187 18.7129 3.24371H18.4346C17.8585 3.24371 17.3898 3.71246 17.3898 4.2887V4.46704C17.1766 4.5954 17.0111 4.79883 16.9324 5.04987L16.5244 6.35028C16.4691 6.52661 16.5013 6.72089 16.6107 6.86975C16.72 7.01862 16.8956 7.1076 17.0803 7.1076H17.1312C17.4167 7.94897 18.2119 8.53381 19.1221 8.53381C20.0323 8.53381 20.8276 7.94897 21.1129 7.1076H21.1639C21.3485 7.1076 21.5241 7.01862 21.6334 6.86975C21.7429 6.72089 21.7751 6.52661 21.7198 6.35028ZM18.4346 3.94684H19.8097C19.9981 3.94684 20.1512 4.10028 20.1512 4.2887V4.31781H18.0929V4.2887C18.0929 4.10028 18.2462 3.94684 18.4346 3.94684ZM17.6033 5.26044C17.6481 5.11707 17.779 5.02094 17.929 5.02094H20.3152C20.4652 5.02094 20.5961 5.11707 20.641 5.26044L20.9999 6.40448H20.8402C20.8386 6.40448 20.8369 6.4043 20.8351 6.40448H17.4094C17.4073 6.4043 17.4053 6.40448 17.4033 6.40448H17.2444L17.6033 5.26044ZM19.1221 7.83069C18.6016 7.83069 18.1378 7.5434 17.897 7.1076H20.3475C20.1065 7.5434 19.6425 7.83069 19.1221 7.83069Z" fill="#F7A000"/>
<path d="M7.56151 0.0972614C6.00933 0.450472 4.84423 1.69504 4.57946 3.24356H4.1867C3.61065 3.24356 3.14208 3.71231 3.14208 4.28855V4.46689C2.92876 4.59525 2.76324 4.79868 2.6845 5.04972L2.27654 6.35013C2.22124 6.52646 2.25347 6.72055 2.36278 6.8696C2.47228 7.01847 2.6477 7.10745 2.83245 7.10745H2.88354C3.16881 7.94882 3.96404 8.53366 4.87426 8.53366C5.78447 8.53366 6.5797 7.94882 6.86516 7.10745H6.91625C7.10082 7.10745 7.27641 7.01847 7.38573 6.8696C7.49504 6.72055 7.52745 6.52646 7.47197 6.35013L7.06419 5.0499C6.98528 4.79868 6.81975 4.59525 6.60643 4.46689V4.28855C6.60643 3.71231 6.13786 3.24356 5.56182 3.24356H5.29521C5.5501 2.02939 6.48485 1.06333 7.71751 0.782808C7.90684 0.739595 8.02531 0.551363 7.98228 0.362032C7.93925 0.172701 7.75066 0.0540485 7.56151 0.0972614ZM4.87426 7.83054C4.35387 7.83054 3.88988 7.54325 3.6491 7.10745H6.0996C5.85863 7.54325 5.39482 7.83054 4.87426 7.83054ZM6.59251 6.40433C6.59087 6.40433 6.58904 6.40415 6.58739 6.40433H3.16167C3.15966 6.40415 3.15764 6.40433 3.15563 6.40433H2.99651L3.3554 5.26029C3.40026 5.11691 3.53136 5.02078 3.68132 5.02078H6.06737C6.21733 5.02078 6.34825 5.11691 6.39311 5.26029L6.752 6.40433H6.59251ZM5.90349 4.28855V4.31766H3.8452V4.28855C3.8452 4.10013 3.99846 3.94669 4.1867 3.94669H5.56182C5.75023 3.94669 5.90349 4.10013 5.90349 4.28855Z" fill="#F7A000"/>
</svg>
